<svg width="56" height="56" viewBox="0 0 56 56" fill="none" xmlns="http://www.w3.org/2000/svg">
<rect width="56" height="56" rx="16" fill="#25D366"/>
<path fill-rule="evenodd" clip-rule="evenodd" d="M35.3317 31.1761C34.9325 30.9774 32.9751 30.0201 32.6107 29.8867C32.2463 29.7547 31.981 29.6894 31.7144 30.0867C31.4491 30.4814 30.6868 31.3747 30.4551 31.6387C30.2219 31.9041 29.9902 31.9361 29.5923 31.7387C29.1943 31.5387 27.9109 31.1214 26.3903 29.7721C25.2073 28.7214 24.4074 27.4241 24.1756 27.0267C23.9439 26.6307 24.1502 26.4161 24.3498 26.2187C24.5293 26.0414 24.7477 25.7561 24.9473 25.5254C25.147 25.2934 25.2126 25.1281 25.3452 24.8627C25.4792 24.5987 25.4122 24.3681 25.3118 24.1694C25.2126 23.9707 24.4168 22.0201 24.0845 21.2267C23.7617 20.4547 23.4334 20.5601 23.1896 20.5467C22.9565 20.5361 22.6912 20.5334 22.4259 20.5334C22.1607 20.5334 21.7293 20.6321 21.3649 21.0294C20.9991 21.4254 19.9715 22.3841 19.9715 24.3347C19.9715 26.2841 21.397 28.1681 21.5966 28.4334C21.7963 28.6974 24.4034 32.7001 28.3972 34.4161C29.3484 34.8241 30.0893 35.0681 30.6667 35.2494C31.6206 35.5521 32.4888 35.5094 33.1747 35.4067C33.9384 35.2934 35.53 34.4481 35.8623 33.5227C36.1932 32.5974 36.1932 31.8041 36.0941 31.6387C35.9949 31.4734 35.7296 31.3747 35.3304 31.1761H35.3317ZM28.0676 41.0467H28.0623C25.6901 41.0472 23.3616 40.4125 21.3206 39.2094L20.8383 38.9241L15.825 40.2334L17.1634 35.3694L16.8486 34.8707C15.5224 32.7699 14.8206 30.3384 14.8242 27.8574C14.8269 20.5907 20.7673 14.6787 28.073 14.6787C31.6099 14.6787 34.9352 16.0521 37.4352 18.5427C38.6682 19.7648 39.6456 21.2181 40.3106 22.8186C40.9757 24.419 41.3153 26.1348 41.3097 27.8667C41.307 35.1334 35.3666 41.0467 28.0676 41.0467ZM39.3376 16.6507C37.8614 15.172 36.1051 13.9994 34.1703 13.2011C32.2355 12.4028 30.1608 11.9946 28.0663 12.0001C19.2856 12.0001 12.1367 19.1134 12.134 27.8561C12.1299 30.6384 12.8633 33.3726 14.2602 35.7827L12 44.0001L20.4458 41.7947C22.7821 43.0616 25.4003 43.7253 28.0609 43.7254H28.0676C36.8483 43.7254 43.9972 36.6121 43.9999 27.8681C44.0064 25.7844 43.5977 23.7202 42.7974 21.7948C41.9971 19.8693 40.8212 18.1209 39.3376 16.6507Z" fill="white"/>
</svg>
