<svg width="64" height="64" viewBox="0 0 64 64" fill="none" xmlns="http://www.w3.org/2000/svg">
<path d="M56.266 29.4667L34.5327 7.73335C33.866 7.06669 32.9327 6.66669 31.9993 6.66669C31.066 6.66669 30.1327 7.06669 29.466 7.73335L24.7994 12.4L30.266 17.8667C30.7994 17.6 31.3327 17.4667 31.9993 17.4667C34.266 17.4667 35.9993 19.2 35.9993 21.4667C35.9993 22.1334 35.866 22.6667 35.5993 23.2L40.9327 28.5334C41.466 28.2667 41.9994 28.1334 42.666 28.1334C44.9327 28.1334 46.666 29.8667 46.666 32.1334C46.666 34.4 44.9327 36.1334 42.666 36.1334C40.3993 36.1334 38.666 34.4 38.666 32.1334C38.666 31.4667 38.7994 30.9334 39.066 30.4L33.7327 25.0667C33.5993 25.0667 33.466 25.2 33.3327 25.2V39.0667C34.9327 39.6 35.9993 41.0667 35.9993 42.8C35.9993 45.0667 34.266 46.8 31.9993 46.8C29.7327 46.8 27.9993 45.0667 27.9993 42.8C27.9993 41.0667 29.066 39.6 30.666 39.0667V25.0667C29.066 24.5334 27.9993 23.0667 27.9993 21.3334C27.9993 20.6667 28.1327 20.1334 28.3993 19.6L22.9327 14.1334L7.73268 29.4667C7.06602 30.1334 6.66602 31.0667 6.66602 32C6.66602 32.9334 7.06602 33.8667 7.73268 34.5334L29.466 56.2667C30.1327 56.9334 31.066 57.3334 31.9993 57.3334C32.9327 57.3334 33.866 56.9334 34.5327 56.2667L56.266 34.5334C56.9327 33.8667 57.3327 32.9334 57.3327 32C57.3327 31.0667 56.9327 30.1334 56.266 29.4667Z" fill="#F4511E"/>
</svg>
