<svg width="65" height="64" viewBox="0 0 65 64" fill="none" xmlns="http://www.w3.org/2000/svg">
<g clip-path="url(#clip0_30_216)">
<path d="M64.6875 49.59C62.3595 50.182 60.9195 49.616 59.6275 47.676L50.4395 34.964L49.1115 33.204L38.3815 47.718C37.1555 49.464 35.8695 50.224 33.5815 49.606L47.3215 31.162L34.5295 14.502C36.7295 14.074 38.2495 14.292 39.5995 16.262L49.1295 29.132L58.7295 16.332C59.9595 14.586 61.2815 13.922 63.4895 14.566L58.5295 21.142L51.8095 29.892C51.0095 30.892 51.1195 31.576 51.8555 32.542L64.6875 49.59ZM0.7035 30.854L1.8275 25.326C4.8875 14.386 17.4275 9.84002 26.0755 16.6C31.1295 20.576 32.3855 26.2 32.1355 32.5H3.6475C3.2195 43.84 11.3815 50.684 21.7875 47.192C25.4375 45.966 27.5875 43.108 28.6635 39.532C29.2095 37.74 30.1135 37.46 31.7975 37.972C30.9375 42.444 28.9975 46.18 24.8975 48.518C18.7715 52.018 10.0275 50.886 5.4275 46.022C2.6875 43.2 1.5555 39.624 1.0475 35.8C0.9675 35.168 0.8075 34.566 0.6875 33.96C0.698167 32.9254 0.7035 31.8907 0.7035 30.856V30.854ZM3.6995 30.094H29.4435C29.2755 21.894 24.1695 16.07 17.1915 16.02C9.5315 15.96 4.0315 21.646 3.6995 30.094Z" fill="black"/>
</g>
<defs>
<clipPath id="clip0_30_216">
<rect width="64" height="64" fill="white" transform="translate(0.6875)"/>
</clipPath>
</defs>
</svg>
