<svg width="106" height="64" viewBox="0 0 106 64" fill="none" xmlns="http://www.w3.org/2000/svg">
<g clip-path="url(#clip0_30_240)">
<mask id="mask0_30_240" style="mask-type:luminance" maskUnits="userSpaceOnUse" x="0" y="0" width="106" height="63">
<path d="M0.974609 0H105.702V62.8364H0.974609V0Z" fill="white"/>
</mask>
<g mask="url(#mask0_30_240)">
<path fill-rule="evenodd" clip-rule="evenodd" d="M53.3382 0C39.3746 0 30.6473 6.98182 27.1564 20.9455C32.3928 13.9636 38.5019 11.3455 45.4837 13.0909C49.4672 14.0858 52.3142 16.9775 55.4658 20.1755C60.5993 25.3867 66.5416 31.4182 79.5201 31.4182C93.4837 31.4182 102.211 24.4364 105.702 10.4727C100.466 17.4545 94.3564 20.0727 87.3746 18.3273C83.3911 17.3324 80.5441 14.4407 77.3925 11.2427C72.259 6.03151 66.3167 0 53.3382 0ZM27.1564 31.4182C13.1928 31.4182 4.46552 38.4 0.974609 52.3636C6.21097 45.3818 12.3201 42.7636 19.3019 44.5091C23.2854 45.5059 26.1324 48.3956 29.2839 51.5937C34.4175 56.8048 40.3598 62.8364 53.3382 62.8364C67.3019 62.8364 76.0292 55.8545 79.5201 41.8909C74.2837 48.8727 68.1746 51.4909 61.1928 49.7455C57.2093 48.7505 54.3622 45.8589 51.2107 42.6608C46.0772 37.4497 40.1348 31.4182 27.1564 31.4182Z" fill="#38BDF8"/>
</g>
</g>
<defs>
<clipPath id="clip0_30_240">
<rect width="104.727" height="64" fill="white" transform="translate(0.974609)"/>
</clipPath>
</defs>
</svg>
