<svg width="57" height="64" viewBox="0 0 57 64" fill="none" xmlns="http://www.w3.org/2000/svg">
<g clip-path="url(#clip0_30_211)">
<path d="M28.5739 64C27.7159 64 26.9151 63.7668 26.1715 63.3586L18.5642 58.7517C17.4203 58.1102 17.9922 57.877 18.3354 57.7603C19.8798 57.2355 20.1658 57.1189 21.7673 56.1859C21.9389 56.0692 22.1677 56.1275 22.3392 56.2442L28.1734 59.8014C28.4023 59.918 28.6882 59.918 28.8598 59.8014L51.6818 46.3307C51.9106 46.214 52.025 45.9808 52.025 45.6892V18.806C52.025 18.5145 51.9106 18.2812 51.6818 18.1646L28.8598 4.75223C28.631 4.63561 28.345 4.63561 28.1734 4.75223L5.3515 18.1646C5.12271 18.2812 5.00831 18.5728 5.00831 18.806V45.6892C5.00831 45.9224 5.12271 46.214 5.3515 46.3307L11.5861 50.0045C14.9608 51.7539 17.077 49.7129 17.077 47.6719V21.1386C17.077 20.7888 17.3631 20.4389 17.7634 20.4389H20.6806C21.0237 20.4389 21.3669 20.7305 21.3669 21.1386V47.6719C21.3669 52.2788 18.9074 54.9613 14.6175 54.9613C13.302 54.9613 12.2725 54.9613 9.35533 53.5034L3.34957 50.0045C1.86243 49.1297 0.947266 47.4969 0.947266 45.7475V18.8644C0.947266 17.115 1.86243 15.4822 3.34957 14.6074L26.1715 1.13672C27.6015 0.320313 29.5462 0.320313 30.9762 1.13672L53.7981 14.6074C55.2852 15.4822 56.2004 17.115 56.2004 18.8644V45.7475C56.2004 47.4969 55.2852 49.1297 53.7981 50.0045L30.9762 63.4752C30.2898 63.7668 29.4318 64 28.5739 64Z" fill="#5FA04E"/>
<path d="M35.6664 45.5142C25.6567 45.5142 23.5977 40.849 23.5977 36.8836C23.5977 36.5338 23.8836 36.1839 24.284 36.1839H27.2583C27.6015 36.1839 27.8875 36.4172 27.8875 36.767C28.345 39.8577 29.6606 41.3739 35.7236 41.3739C40.5282 41.3739 42.5873 40.2659 42.5873 37.6417C42.5873 36.1256 42.0153 35.0176 34.5224 34.2595C28.2878 33.618 24.3984 32.2185 24.3984 27.1451C24.3984 22.4216 28.2878 19.6225 34.8084 19.6225C42.1297 19.6225 45.7332 22.1883 46.1908 27.7865C46.1908 27.9615 46.1336 28.1364 46.0192 28.3114C45.9048 28.428 45.7332 28.5447 45.5616 28.5447H42.5301C42.2441 28.5447 41.9581 28.3114 41.9009 28.0198C41.2146 24.8125 39.4414 23.7628 34.7512 23.7628C29.489 23.7628 28.8598 25.6289 28.8598 27.0284C28.8598 28.7196 29.6034 29.2445 36.6959 30.1775C43.7313 31.1105 47.0487 32.4517 47.0487 37.4668C47.0487 42.5985 42.8733 45.5142 35.6664 45.5142Z" fill="#5FA04E"/>
</g>
<defs>
<clipPath id="clip0_30_211">
<rect width="56.32" height="64" fill="white" transform="translate(0.314453)"/>
</clipPath>
</defs>
</svg>
