<svg width="43" height="64" viewBox="0 0 43 64" fill="none" xmlns="http://www.w3.org/2000/svg">
<g clip-path="url(#clip0_30_248)">
<path d="M21.3594 32C21.3594 29.171 22.4832 26.4579 24.4836 24.4575C26.484 22.4571 29.1971 21.3333 32.026 21.3333C34.855 21.3333 37.5681 22.4571 39.5685 24.4575C41.5689 26.4579 42.6927 29.171 42.6927 32C42.6927 34.829 41.5689 37.5421 39.5685 39.5425C37.5681 41.5428 34.855 42.6666 32.026 42.6666C29.1971 42.6666 26.484 41.5428 24.4836 39.5425C22.4832 37.5421 21.3594 34.829 21.3594 32Z" fill="#1ABCFE"/>
<path d="M0.0253906 53.3334C0.0253906 50.5044 1.1492 47.7913 3.14958 45.7909C5.14997 43.7905 7.86308 42.6667 10.6921 42.6667H21.3587V53.3334C21.3587 56.1623 20.2349 58.8754 18.2345 60.8758C16.2341 62.8762 13.521 64 10.6921 64C7.86308 64 5.14997 62.8762 3.14958 60.8758C1.1492 58.8754 0.0253906 56.1623 0.0253906 53.3334Z" fill="#0ACF83"/>
<path d="M21.3594 0V21.3333H32.026C34.855 21.3333 37.5681 20.2095 39.5685 18.2091C41.5689 16.2087 42.6927 13.4956 42.6927 10.6667C42.6927 7.83769 41.5689 5.12458 39.5685 3.12419C37.5681 1.12381 34.855 0 32.026 0L21.3594 0Z" fill="#FF7262"/>
<path d="M0.0253906 10.6667C0.0253906 13.4956 1.1492 16.2087 3.14958 18.2091C5.14997 20.2095 7.86308 21.3333 10.6921 21.3333H21.3587V0H10.6921C7.86308 0 5.14997 1.12381 3.14958 3.12419C1.1492 5.12458 0.0253906 7.83769 0.0253906 10.6667Z" fill="#F24E1E"/>
<path d="M0.0253906 32C0.0253906 34.829 1.1492 37.5421 3.14958 39.5425C5.14997 41.5428 7.86308 42.6666 10.6921 42.6666H21.3587V21.3333H10.6921C7.86308 21.3333 5.14997 22.4571 3.14958 24.4575C1.1492 26.4579 0.0253906 29.171 0.0253906 32Z" fill="#A259FF"/>
</g>
<defs>
<clipPath id="clip0_30_248">
<rect width="42.6667" height="64" fill="white" transform="translate(0.0253906)"/>
</clipPath>
</defs>
</svg>
