<svg width="65" height="64" viewBox="0 0 65 64" fill="none" xmlns="http://www.w3.org/2000/svg">
<path fill-rule="evenodd" clip-rule="evenodd" d="M11.7632 55.604L10.0272 9.37601C9.97256 7.84935 11.1459 6.55735 12.6699 6.46401L43.4806 4.53735L45.8339 5.33335L48.8939 4.19868L51.9819 4.00535C53.5326 3.90668 54.8699 5.08401 54.9699 6.63468C54.9739 6.69468 54.9752 6.75601 54.9752 6.81735V57.1867C54.9739 58.7427 53.7112 60.0027 52.1552 60.0013C52.1139 60.0013 52.0726 60 52.0326 59.9987L14.4512 58.3107C12.9872 58.2453 11.8192 57.0693 11.7632 55.604Z" fill="#FF4081"/>
<path fill-rule="evenodd" clip-rule="evenodd" d="M48.89 4.19867L43.4806 4.53467L43.218 10.8827C43.2086 11.1147 43.3886 11.3093 43.6206 11.32C43.718 11.324 43.8126 11.2947 43.89 11.236L46.354 9.36534L48.4366 11.0067C48.618 11.1507 48.8833 11.12 49.026 10.9387C49.0873 10.86 49.1193 10.7627 49.1166 10.6627L48.8926 4.2L48.89 4.19867ZM44.6793 25.4507C43.6913 26.22 36.31 26.744 36.31 25.6493C36.4673 21.4693 34.5966 21.2867 33.5553 21.2867C32.57 21.2867 30.906 21.584 30.906 23.824C30.906 26.1053 33.3366 27.3933 36.19 28.9053C40.242 31.0533 45.15 33.6547 45.15 40.1947C45.15 46.4667 40.054 49.928 33.558 49.928C26.8526 49.928 20.9913 47.2147 21.6526 37.8093C21.9126 36.7067 30.4393 36.9693 30.4393 37.8093C30.3326 41.6907 31.218 42.832 33.4526 42.832C35.1686 42.832 35.9473 41.8853 35.9473 40.2947C35.9473 37.884 33.4166 36.4613 30.502 34.8267C26.5566 32.612 21.914 30.0053 21.914 24.0213C21.914 18.052 26.0193 14.0707 33.3486 14.0707C40.6779 14.0707 44.6793 17.992 44.6793 25.4507Z" fill="white"/>
</svg>
