<svg width="65" height="64" viewBox="0 0 65 64" fill="none" xmlns="http://www.w3.org/2000/svg">
<g clip-path="url(#clip0_30_188)">
<path d="M61.873 0H3.87305C2.21619 0 0.873047 1.34315 0.873047 3V61C0.873047 62.6569 2.21619 64 3.87305 64H61.873C63.5299 64 64.873 62.6569 64.873 61V3C64.873 1.34315 63.5299 0 61.873 0Z" fill="#3178C6"/>
<path fill-rule="evenodd" clip-rule="evenodd" d="M38.0041 49.734V56.747C39.1403 57.331 40.484 57.7695 42.0354 58.0615C43.5867 58.354 45.2218 58.5 46.9406 58.5C48.6158 58.5 50.2071 58.3395 51.7145 58.018C53.2225 57.6965 54.544 57.167 55.6805 56.429C56.8165 55.691 57.716 54.727 58.379 53.536C59.0415 52.3455 59.373 50.8735 59.373 49.1203C59.373 47.8493 59.1835 46.7353 58.805 45.7783C58.426 44.8214 57.88 43.9704 57.166 43.2252C56.4525 42.4801 55.5965 41.8117 54.599 41.22C53.601 40.6283 52.476 40.0694 51.223 39.5435C50.3054 39.1636 49.4824 38.7947 48.7541 38.4368C48.0258 38.0788 47.4067 37.7136 46.8969 37.341C46.3871 36.9684 45.9938 36.574 45.717 36.1576C45.4403 35.7413 45.3019 35.27 45.3019 34.7441C45.3019 34.2619 45.4257 33.8273 45.6733 33.4402C45.921 33.053 46.2706 32.7206 46.7221 32.443C47.1737 32.1655 47.7272 31.95 48.3827 31.7966C49.0382 31.6431 49.7665 31.5664 50.5676 31.5664C51.1505 31.5664 51.7655 31.6103 52.414 31.6979C53.062 31.7856 53.714 31.9207 54.3695 32.1034C55.025 32.286 55.662 32.5161 56.2815 32.7937C56.9005 33.0713 57.472 33.3927 57.9965 33.7579V27.2054C56.933 26.7963 55.7715 26.4931 54.5115 26.2959C53.2515 26.0986 51.806 26 50.1743 26C48.5138 26 46.9406 26.1789 45.4548 26.5369C43.9691 26.8948 42.6617 27.4537 41.5328 28.2134C40.4039 28.9731 39.5117 29.941 38.8563 31.1171C38.2008 32.2932 37.873 33.6995 37.873 35.3358C37.873 37.4251 38.4739 39.2074 39.6756 40.683C40.8774 42.1587 42.7018 43.4079 45.1489 44.4305C46.1103 44.825 47.0062 45.2122 47.8364 45.592C48.6667 45.9719 49.3841 46.3664 49.9886 46.7755C50.5931 47.1846 51.07 47.6302 51.4195 48.1123C51.7695 48.5944 51.944 49.1423 51.944 49.7559C51.944 50.209 51.835 50.629 51.6165 51.016C51.398 51.403 51.0665 51.739 50.6223 52.024C50.178 52.309 49.6245 52.532 48.9617 52.6925C48.2989 52.853 47.5233 52.9335 46.6347 52.9335C45.1198 52.9335 43.6195 52.667 42.1337 52.1335C40.6479 51.6005 39.2714 50.8005 38.0041 49.734ZM26.2243 32.2772H35.373V26.5H9.87305V32.2772H18.977V58H26.2243V32.2772Z" fill="white"/>
</g>
<defs>
<clipPath id="clip0_30_188">
<rect width="64" height="64" fill="white" transform="translate(0.873047)"/>
</clipPath>
</defs>
</svg>
