<svg width="67" height="64" viewBox="0 0 67 64" fill="none" xmlns="http://www.w3.org/2000/svg">
<path fill-rule="evenodd" clip-rule="evenodd" d="M38.2878 1.06171C37.836 1.06171 37.4165 1.1588 37.0292 1.28824C37.8521 1.83839 38.3039 2.56654 38.5298 3.39177C38.546 3.50503 38.5782 3.58594 38.5943 3.6992C38.6105 3.79629 38.6266 3.89338 38.6266 3.99046C38.6912 5.41439 38.2555 5.59238 37.9489 6.43379C37.481 7.51792 37.6101 8.68294 38.1748 9.62144C38.2232 9.73471 38.2878 9.86415 38.3684 9.97742C37.7553 5.88364 41.1598 5.26876 41.7891 3.99046C41.8375 2.87398 40.9178 2.12965 40.1917 1.61186C39.4979 1.19115 38.8686 1.06171 38.2878 1.06171ZM43.4187 1.98402C43.3541 2.35618 43.4025 2.2591 43.3865 2.45327C43.3703 2.58272 43.3703 2.74453 43.3542 2.87397C43.322 3.00342 43.2896 3.13287 43.2413 3.26232C43.209 3.39177 43.1606 3.52122 43.1122 3.65066C43.0476 3.78011 42.9992 3.89338 42.9347 4.02282C42.8863 4.08757 42.854 4.15227 42.8056 4.217C42.7734 4.26554 42.741 4.31408 42.7088 4.36263C42.6281 4.4759 42.5475 4.58916 42.4668 4.68624C42.37 4.78333 42.2893 4.89659 42.1763 4.97751V4.99371C42.0795 5.07461 41.9827 5.1717 41.8698 5.2526C41.5309 5.51149 41.1437 5.70567 40.7887 5.94838C40.6758 6.02928 40.5628 6.09401 40.466 6.1911C40.3531 6.272 40.2563 6.3529 40.1595 6.44999C40.0465 6.54708 39.9658 6.64416 39.869 6.75743C39.7884 6.85452 39.6916 6.96778 39.627 7.08105C39.5463 7.19431 39.4657 7.30758 39.4011 7.42085C39.3366 7.55029 39.2882 7.66357 39.2236 7.79301C39.1752 7.92245 39.1268 8.03573 39.0946 8.16517C39.0461 8.3108 39.0139 8.44025 38.9816 8.5697C38.9655 8.63445 38.9655 8.71533 38.9494 8.78005C38.9332 8.8448 38.9332 8.9095 38.9171 8.97423C38.9171 9.10367 38.901 9.2493 38.901 9.37875C38.901 9.47583 38.901 9.57292 38.9171 9.67001C38.9171 9.79945 38.9333 9.9289 38.9655 10.0745C38.9817 10.204 39.0139 10.3334 39.0462 10.4629C39.0946 10.5923 39.1269 10.7218 39.1753 10.8512C39.2075 10.9321 39.256 11.013 39.2882 11.0777L35.5772 9.63764C34.9479 9.45965 34.3348 9.29784 33.7055 9.15221C33.3667 9.07131 33.0278 8.9904 32.689 8.9095C31.7209 8.71533 30.7367 8.5697 29.7524 8.47262C29.7202 8.47262 29.704 8.45641 29.6718 8.45641C28.7036 8.35933 27.7517 8.31079 26.7836 8.31079C26.0736 8.31079 25.3637 8.34312 24.6699 8.39169C23.6856 8.45644 22.7014 8.58586 21.7172 8.74767C21.4751 8.78001 21.2331 8.82858 20.9911 8.87712C20.4909 8.9742 20.0069 9.08747 19.5389 9.20074C19.2969 9.26549 19.0549 9.33019 18.8129 9.39491C18.5708 9.49199 18.345 9.60526 18.1191 9.70235C17.9416 9.78325 17.7641 9.86416 17.5866 9.94506C17.5544 9.96127 17.522 9.96127 17.5059 9.9774C17.3446 10.0583 17.1994 10.123 17.0542 10.2039C17.0057 10.2201 16.9735 10.2363 16.9412 10.2525C16.7637 10.3334 16.5862 10.4305 16.441 10.5114C16.3281 10.5599 16.2151 10.6246 16.1183 10.6732C16.0699 10.7055 16.0054 10.7379 15.9731 10.7541C15.8279 10.835 15.6827 10.9159 15.5536 10.9968C15.4084 11.0777 15.2793 11.1586 15.1663 11.2395C15.0534 11.3204 14.9405 11.3851 14.8436 11.466C14.8275 11.4822 14.8114 11.4822 14.7952 11.4984C14.6984 11.5631 14.5855 11.644 14.4887 11.7249C14.4887 11.7249 14.4725 11.7411 14.4564 11.7573C14.3758 11.822 14.2951 11.8867 14.2144 11.9514C14.1822 11.9676 14.1498 12 14.1176 12.0162C14.0369 12.0809 13.9562 12.1618 13.8756 12.2265C13.8594 12.2589 13.8272 12.2751 13.811 12.2913C13.7142 12.3884 13.6174 12.4693 13.5206 12.5664C13.5044 12.5664 13.5044 12.5826 13.4883 12.5987C13.3915 12.6796 13.2947 12.7767 13.1979 12.8738C13.1817 12.89 13.1817 12.9061 13.1657 12.9061C13.085 12.987 13.0043 13.0679 12.9236 13.165C12.8914 13.1973 12.843 13.2297 12.8107 13.2621C12.73 13.3592 12.6332 13.4563 12.5364 13.5533C12.5202 13.5857 12.488 13.6019 12.4718 13.6342C12.3427 13.7637 12.2298 13.8931 12.1007 14.0226C12.0846 14.0388 12.0685 14.0549 12.0523 14.0711C11.7941 14.3462 11.5199 14.6213 11.2294 14.864C10.939 15.1229 10.6324 15.3656 10.3259 15.576C10.0032 15.8025 9.6966 15.9967 9.35776 16.1908C9.03506 16.3688 8.69622 16.5306 8.34125 16.6763C8.00242 16.8219 7.64745 16.9514 7.29248 17.0646C6.6148 17.2102 5.921 17.4853 5.324 17.5339C5.19492 17.5339 5.04971 17.5662 4.92063 17.5824C4.77541 17.6147 4.64633 17.6472 4.51725 17.6795C4.38817 17.728 4.25909 17.7766 4.13001 17.8251C4.00093 17.8737 3.87185 17.9384 3.74277 18.0031C3.62982 18.084 3.50075 18.1487 3.3878 18.2296C3.27486 18.3105 3.16191 18.4076 3.0651 18.5047C2.95216 18.5856 2.83921 18.6989 2.7424 18.796C2.64558 18.9092 2.54877 19.0063 2.4681 19.1196C2.38743 19.249 2.29062 19.3623 2.22607 19.4918C2.1454 19.605 2.06473 19.7345 2.00018 19.8639C1.93562 20.0096 1.87111 20.139 1.8227 20.2846C1.77429 20.4141 1.72589 20.5597 1.67748 20.7053C1.64524 20.8348 1.61292 20.9642 1.59681 21.0937C1.59681 21.1099 1.58065 21.126 1.58065 21.1422C1.54841 21.2878 1.54841 21.482 1.53224 21.5791C1.51608 21.6924 1.5 21.7895 1.5 21.9027C1.5 21.9675 1.5 22.0484 1.51616 22.1131C1.53232 22.2263 1.5484 22.3234 1.58073 22.4205C1.61297 22.5176 1.64529 22.6147 1.69367 22.7118V22.728C1.74207 22.8251 1.80662 22.9222 1.87115 23.0192C1.93572 23.1163 2.00024 23.2134 2.08091 23.3105C2.16158 23.3914 2.25839 23.4885 2.35521 23.5694C2.45202 23.6665 2.54883 23.7474 2.66177 23.8283C3.04901 24.1681 3.14582 24.2814 3.64601 24.5402C3.72668 24.5888 3.80736 24.6212 3.90417 24.6697C3.92034 24.6697 3.93642 24.6859 3.95258 24.6859C3.95258 24.7182 3.95258 24.7344 3.96874 24.7668C3.9849 24.8963 4.01715 25.0257 4.04941 25.1552C4.08166 25.3008 4.13009 25.4302 4.1785 25.5435C4.22691 25.6406 4.25917 25.7377 4.30758 25.8348C4.32374 25.8671 4.33982 25.8995 4.35598 25.9157C4.42055 26.0451 4.48506 26.1584 4.5496 26.2716C4.63028 26.3849 4.71095 26.4982 4.79163 26.6114C4.8723 26.7085 4.96911 26.8218 5.06592 26.9189C5.16273 27.016 5.25954 27.0969 5.37249 27.1939C5.37249 27.1939 5.38865 27.2102 5.40474 27.2102C5.50155 27.2911 5.59836 27.372 5.69517 27.4367C5.80811 27.5176 5.92106 27.5823 6.05014 27.6471C6.16309 27.7118 6.29216 27.7765 6.42124 27.8251C6.51805 27.8736 6.63099 27.906 6.74394 27.9383C6.76011 27.9545 6.77619 27.9545 6.80851 27.9707C6.87308 27.9869 6.95372 28.003 7.01826 28.0192C6.96986 28.893 6.9537 29.7182 7.08283 30.0095C7.22804 30.3331 7.93798 29.346 8.64792 28.2134C8.55111 29.3299 8.48657 30.6405 8.64792 31.0289C8.82541 31.4334 9.79351 30.1713 10.6325 28.7797C22.0723 26.126 32.5116 34.0547 33.6088 45.2519C33.3991 43.5044 31.2531 42.5335 30.2689 42.7762C29.7848 43.9736 28.9619 45.5108 27.6389 46.4655C27.7518 45.3976 27.7034 44.2973 27.4775 43.2293C27.1225 44.718 26.4287 46.1095 25.4768 47.3069C23.9439 47.4202 22.4111 46.6759 21.6043 45.5594C21.5398 45.5108 21.5237 45.4137 21.4753 45.349C21.4269 45.2357 21.3785 45.1225 21.3462 45.0092C21.2978 44.896 21.2655 44.7827 21.2494 44.6694C21.2332 44.5561 21.2332 44.4429 21.2332 44.3134C21.2332 44.2325 21.2332 44.1516 21.2332 44.0707C21.2494 43.9575 21.2816 43.8442 21.3139 43.7309C21.3461 43.6177 21.3785 43.5044 21.4268 43.3911C21.4914 43.2779 21.5398 43.1646 21.6205 43.0513C21.8948 42.2746 21.8948 41.6436 21.3946 41.2714C21.2978 41.2067 21.201 41.1581 21.088 41.1096C21.0234 41.0934 20.9428 41.0611 20.8783 41.0449C20.8298 41.0287 20.7976 41.0125 20.7492 40.9963C20.6362 40.964 20.5233 40.9316 20.4103 40.9154C20.2974 40.8831 20.1844 40.8669 20.0715 40.8669C19.9586 40.8506 19.8295 40.8345 19.7165 40.8345C19.6359 40.8345 19.5552 40.8507 19.4745 40.8507C19.3454 40.8507 19.2325 40.867 19.1195 40.8993C19.0066 40.9155 18.8936 40.9316 18.7807 40.964C18.6678 40.9964 18.5548 41.0288 18.4419 41.0773C18.3289 41.1258 18.2321 41.1744 18.1192 41.2229C18.0224 41.2715 17.9255 41.3362 17.8126 41.3847C14.0531 43.8442 16.2959 49.6047 18.8614 51.2713C17.8933 51.4493 16.909 51.6596 16.6347 51.87C16.6186 51.8862 16.6025 51.9023 16.6025 51.9023C17.2963 52.323 18.0224 52.679 18.7807 52.9865C19.8134 53.3263 20.9105 53.6337 21.3946 53.7631V53.7793C22.7338 54.0544 24.0891 54.1515 25.4606 54.0706C32.6084 53.569 38.4655 48.116 39.5304 40.9317C39.5626 41.0773 39.5949 41.2067 39.6272 41.3524C39.6756 41.6436 39.7401 41.9511 39.7724 42.2585V42.2747C39.8046 42.4203 39.8208 42.566 39.837 42.6954V42.7602C39.8531 42.9058 39.8692 43.0514 39.8692 43.1809C39.8854 43.3589 39.9015 43.5369 39.9015 43.7149V43.9737C39.9015 44.0547 39.9176 44.1517 39.9176 44.2326C39.9176 44.3297 39.9015 44.4268 39.9015 44.5239V44.7504C39.9015 44.8637 39.8853 44.9608 39.8853 45.074C39.8853 45.1388 39.8853 45.2035 39.8691 45.2844C39.8691 45.3977 39.853 45.5109 39.853 45.6404C39.8368 45.6889 39.8368 45.7375 39.8368 45.786C39.8206 45.9155 39.8045 46.0287 39.7884 46.1582C39.7884 46.2067 39.7884 46.2553 39.7722 46.3038C39.756 46.4656 39.7238 46.6112 39.7077 46.7731V46.7893V46.8055C39.6754 46.9511 39.6431 47.1129 39.6108 47.2585V47.3071C39.5786 47.4527 39.5463 47.5983 39.514 47.744C39.514 47.7602 39.4979 47.7925 39.4979 47.8087C39.4656 47.9543 39.4333 48.1 39.3849 48.2456V48.2942C39.3365 48.456 39.2881 48.6016 39.2559 48.7472C39.2397 48.7634 39.2397 48.7796 39.2397 48.7796C39.1913 48.9414 39.1429 49.1032 39.0945 49.265C39.0299 49.4268 38.9816 49.5724 38.917 49.7342C38.8525 49.896 38.8041 50.0578 38.7395 50.2035C38.675 50.3653 38.6104 50.5109 38.5459 50.6727H38.5297C38.4652 50.8184 38.4006 50.9802 38.32 51.1258C38.3038 51.1743 38.2877 51.2067 38.2716 51.2391C38.2554 51.2553 38.2554 51.2714 38.2393 51.2876C37.1905 53.4073 35.6416 55.2681 33.7054 56.7244C33.5763 56.8053 33.4472 56.9024 33.3181 56.9995C33.2859 57.0318 33.2375 57.048 33.2052 57.0804C33.0922 57.1613 32.9793 57.2422 32.8502 57.3231L32.8986 57.4202H32.9148C33.1407 57.3879 33.3666 57.3554 33.5924 57.3231H33.6086C34.0281 57.2584 34.4476 57.1775 34.8671 57.0966C34.9801 57.0803 35.1092 57.048 35.2221 57.0157C35.3028 56.9994 35.3673 56.9833 35.448 56.9671C35.5609 56.9509 35.6739 56.9186 35.7868 56.9024C35.8836 56.87 35.9805 56.8538 36.0773 56.8215C37.6908 56.4331 39.2559 55.8991 40.7564 55.2681C38.191 58.7794 34.7542 61.611 30.7366 63.4718C32.5921 63.3424 34.4476 63.035 36.2386 62.5172C42.741 60.5916 48.2108 56.2066 51.4862 50.3005C50.8247 54.0383 49.3403 57.5981 47.1459 60.7049C48.711 59.6693 50.147 58.4719 51.4539 57.1127C55.0682 53.3264 57.4401 48.5206 58.2468 43.3589C58.7954 45.9155 58.9567 48.553 58.7147 51.1581C70.3642 34.8639 59.6828 17.971 55.2134 13.5212C55.1972 13.4889 55.1812 13.4726 55.1812 13.4403C55.165 13.4565 55.165 13.4565 55.165 13.4726C55.165 13.4564 55.165 13.4564 55.1488 13.4403C55.1488 13.6345 55.1327 13.8286 55.1166 14.0228C55.0682 14.395 55.0198 14.7509 54.9552 15.1069C54.8746 15.4629 54.7778 15.8189 54.6809 16.1749C54.568 16.5147 54.4389 16.8706 54.2937 17.2105C54.1485 17.5341 53.9871 17.8739 53.8097 18.1975C53.6322 18.5049 53.4385 18.8286 53.2288 19.1198C53.019 19.4272 52.7931 19.7185 52.5672 19.9936C52.3252 20.2848 52.0671 20.5437 51.8089 20.8026C51.6476 20.9483 51.5023 21.0777 51.341 21.2071C51.2119 21.3204 51.099 21.4175 50.9699 21.5308C50.6795 21.7573 50.389 21.9677 50.0663 22.1618C49.7598 22.356 49.4371 22.5502 49.1144 22.712C48.7755 22.8738 48.4367 23.0194 48.0979 23.165C47.759 23.2945 47.404 23.4078 47.0491 23.5049C46.6941 23.6019 46.323 23.6828 45.968 23.7476C45.5969 23.8123 45.2258 23.8446 44.8708 23.877C44.6127 23.8932 44.3545 23.9094 44.0964 23.9094C43.7253 23.9094 43.3542 23.877 42.9992 23.8446C42.6281 23.8123 42.257 23.7637 41.902 23.6828C41.5309 23.618 41.1759 23.521 40.8209 23.4077H40.8048C41.1598 23.3754 41.5147 23.343 41.8697 23.2783C42.2408 23.2135 42.5958 23.1326 42.9508 23.0355C43.3057 22.9385 43.6607 22.8252 43.9995 22.6957C44.3545 22.5663 44.6933 22.4045 45.016 22.2427C45.3549 22.0809 45.6614 21.9029 45.9841 21.7087C46.2907 21.4984 46.5973 21.288 46.8877 21.0615C47.1781 20.8349 47.4524 20.5922 47.7106 20.3333C47.9849 20.0906 48.2269 19.8155 48.4689 19.5405C48.711 19.2492 48.9368 18.9579 49.1466 18.6667C49.1789 18.6181 49.2112 18.5534 49.2434 18.5049C49.4048 18.246 49.5661 17.9871 49.7113 17.7282C49.8888 17.4046 50.0502 17.0809 50.1954 16.7412C50.3406 16.4014 50.4697 16.0615 50.5826 15.7056C50.6956 15.3658 50.7762 15.0098 50.8569 14.6538C50.9215 14.2816 50.986 13.9257 51.0183 13.5697C51.0505 13.1975 51.0828 12.8254 51.0828 12.4694C51.0828 12.2105 51.0667 11.9516 51.0506 11.6927C51.0183 11.3205 50.9699 10.9645 50.9215 10.6086C50.8569 10.2364 50.7763 9.88043 50.6795 9.52444C50.5665 9.18464 50.4536 8.82866 50.3245 8.48886C50.1954 8.14906 50.0341 7.80926 49.8727 7.48564C49.6952 7.16202 49.5178 6.8384 49.3241 6.53096C49.1144 6.22353 48.9046 5.93227 48.6787 5.64101C48.4367 5.36593 48.1947 5.09086 47.9365 4.81578C47.8074 4.68634 47.6622 4.54071 47.517 4.41126C46.7909 3.84492 46.0326 3.31095 45.2742 2.82552C45.1613 2.76077 45.0645 2.71225 44.9515 2.66371C44.4191 2.32391 43.9189 2.14583 43.4187 1.98402Z" fill="#E0234E"/>
</svg>
