<svg width="31" height="64" viewBox="0 0 31 64" fill="none" xmlns="http://www.w3.org/2000/svg">
<g clip-path="url(#clip0_30_232)">
<path d="M21.0328 7.13325C18.3348 3.94632 16.0116 0.709589 15.5369 0.0373468C15.487 -0.0124489 15.412 -0.0124489 15.3621 0.0373468C14.8874 0.709589 12.5642 3.94632 9.86623 7.13325C-13.2912 36.5376 13.5135 56.3813 13.5135 56.3813L13.7383 56.5306C13.9381 59.5932 14.4378 64 14.4378 64H15.437H16.4362C16.4362 64 16.9359 59.618 17.1357 56.5306L17.3605 56.3565C17.3855 56.3565 44.1901 36.5376 21.0328 7.13325ZM15.437 55.933C15.437 55.933 14.2379 54.9123 13.9132 54.3893V54.3397L15.3621 22.3209C15.3621 22.2213 15.512 22.2213 15.512 22.3209L16.9608 54.3397V54.3893C16.6361 54.9123 15.437 55.933 15.437 55.933Z" fill="#00684A"/>
</g>
<defs>
<clipPath id="clip0_30_232">
<rect width="29.7674" height="64" fill="white" transform="translate(0.441406)"/>
</clipPath>
</defs>
</svg>
