<svg width="65" height="64" viewBox="0 0 65 64" fill="none" xmlns="http://www.w3.org/2000/svg">
<g clip-path="url(#clip0_30_201)">
<mask id="mask0_30_201" style="mask-type:alpha" maskUnits="userSpaceOnUse" x="0" y="0" width="65" height="64">
<path d="M32.4395 64C50.1126 64 64.4395 49.6731 64.4395 32C64.4395 14.3269 50.1126 0 32.4395 0C14.7663 0 0.439453 14.3269 0.439453 32C0.439453 49.6731 14.7663 64 32.4395 64Z" fill="black"/>
</mask>
<g mask="url(#mask0_30_201)">
<path d="M32.4392 62.9333C49.5232 62.9333 63.3725 49.084 63.3725 32C63.3725 14.916 49.5232 1.06665 32.4392 1.06665C15.3552 1.06665 1.50586 14.916 1.50586 32C1.50586 49.084 15.3552 62.9333 32.4392 62.9333Z" fill="black" stroke="white" stroke-width="6"/>
<path d="M53.5971 56.0071L25.0225 19.2H19.6387V44.7893H23.9457V24.6697L50.2161 58.6116C51.4015 57.8183 52.5308 56.9476 53.5971 56.0071Z" fill="url(#paint0_linear_30_201)"/>
<path d="M45.5948 19.2H41.3281V44.8H45.5948V19.2Z" fill="url(#paint1_linear_30_201)"/>
</g>
</g>
<defs>
<linearGradient id="paint0_linear_30_201" x1="39.1942" y1="41.4222" x2="51.8165" y2="57.0667" gradientUnits="userSpaceOnUse">
<stop stop-color="white"/>
<stop offset="1" stop-color="white" stop-opacity="0"/>
</linearGradient>
<linearGradient id="paint1_linear_30_201" x1="43.4615" y1="19.2" x2="43.39" y2="38" gradientUnits="userSpaceOnUse">
<stop stop-color="white"/>
<stop offset="1" stop-color="white" stop-opacity="0"/>
</linearGradient>
<clipPath id="clip0_30_201">
<rect width="64" height="64" fill="white" transform="translate(0.439453)"/>
</clipPath>
</defs>
</svg>
