<svg width="65" height="64" viewBox="0 0 65 64" fill="none" xmlns="http://www.w3.org/2000/svg">
<path d="M53.804 34.608C51.7533 34.6187 49.9773 35.1107 48.4893 35.8454C47.9453 34.7587 47.3933 33.8027 47.3013 33.092C47.1933 32.2627 47.068 31.7667 47.1986 30.7787C47.3293 29.7907 47.9013 28.3907 47.8933 28.2854C47.8853 28.18 47.7653 27.6774 46.5826 27.668C45.4 27.66 44.388 27.896 44.2693 28.208C44.1506 28.52 43.9226 29.2227 43.7813 29.956C43.5746 31.028 41.42 34.8534 40.1973 36.8534C39.7973 36.072 39.4573 35.384 39.3866 34.84C39.2786 34.0107 39.1533 33.5147 39.284 32.5267C39.4146 31.5387 39.9866 30.1387 39.9786 30.0334C39.9706 29.928 39.8506 29.4254 38.668 29.416C37.4853 29.408 36.4733 29.644 36.3546 29.956C36.236 30.268 36.108 30.9974 35.8666 31.704C35.624 32.4094 32.7613 38.7894 32.0106 40.444C31.628 41.2867 31.296 41.964 31.0613 42.4254L31.06 42.4227C31.06 42.4227 31.0453 42.4534 31.0213 42.5054C30.82 42.8987 30.7013 43.116 30.7013 43.116C30.7013 43.116 30.7026 43.1187 30.7053 43.124C30.5453 43.4134 30.3746 43.6814 30.2906 43.6814C30.232 43.6814 30.1133 42.912 30.316 41.856C30.7426 39.6427 31.7653 36.192 31.756 36.072C31.7506 36.0107 31.9466 35.4094 31.088 35.0947C30.2533 34.7894 29.956 35.2987 29.88 35.3C29.8066 35.3014 29.752 35.48 29.752 35.48C29.752 35.48 30.6813 31.5987 27.9786 31.5987C26.288 31.5987 23.9466 33.448 22.7933 35.124C22.0653 35.5214 20.5066 36.372 18.8546 37.28C18.22 37.6294 17.572 37.9854 16.9573 38.324C16.916 38.2774 16.8733 38.232 16.8306 38.1854C13.552 34.688 7.49329 32.2147 7.74929 27.512C7.84263 25.8027 8.43729 21.3014 19.3933 15.8427C28.368 11.3707 35.5533 12.6014 36.7946 15.328C38.568 19.2254 32.9546 26.4667 23.6346 27.512C20.084 27.9107 18.2133 26.5334 17.748 26.0214C17.2586 25.4814 17.1853 25.4574 17.0026 25.5587C16.7053 25.724 16.8933 26.2 17.0026 26.484C17.2813 27.208 18.4226 28.492 20.3693 29.132C22.0826 29.6947 26.252 30.0027 31.2933 28.052C36.9413 25.868 41.3506 19.7907 40.0546 14.712C38.7373 9.5467 30.172 7.84803 22.0653 10.728C17.2346 12.4427 12.012 15.1334 8.25596 18.6454C3.79063 22.8214 3.07863 26.4574 3.37196 27.976C4.41463 33.3734 11.8533 36.888 14.832 39.492C14.6853 39.5734 14.5466 39.6494 14.4213 39.7187C12.928 40.4574 7.25729 43.4254 5.83863 46.56C4.22929 50.116 6.09463 52.668 7.32929 53.012C11.1546 54.076 15.08 52.1614 17.1906 49.0147C19.3 45.8694 19.0426 41.772 18.0746 39.9027C18.0626 39.88 18.0493 39.8574 18.0373 39.8334C18.4226 39.6054 18.816 39.3734 19.2053 39.144C19.9653 38.6974 20.712 38.2814 21.3586 37.9294C20.996 38.9214 20.7306 40.112 20.5933 41.8307C20.4306 43.8494 21.2586 46.4587 22.3413 47.4854C22.8186 47.9374 23.392 47.948 23.7546 47.948C25.0146 47.948 25.5893 46.9 26.2226 45.66C26.9986 44.14 27.688 42.3694 27.688 42.3694C27.688 42.3694 26.824 47.1507 29.1786 47.1507C30.0373 47.1507 30.9 46.0374 31.2853 45.4707C31.2866 45.4774 31.2866 45.48 31.2866 45.48C31.2866 45.48 31.3093 45.4427 31.3533 45.3694C31.4426 45.2334 31.4933 45.1467 31.4933 45.1467C31.4933 45.1467 31.4946 45.1374 31.4973 45.1214C31.8426 44.5227 32.608 43.1574 33.7546 40.9054C35.2373 37.996 36.6586 34.3507 36.6586 34.3507C36.6586 34.3507 36.7906 35.2414 37.224 36.716C37.4786 37.5827 38.02 38.5414 38.448 39.4614C38.104 39.9387 37.8933 40.212 37.8933 40.212C37.8933 40.212 37.8946 40.2174 37.8986 40.2267C37.624 40.592 37.316 40.9854 36.9933 41.3694C35.8226 42.7627 34.4293 44.3547 34.2426 44.8134C34.0226 45.3547 34.0746 45.752 34.5 46.0734C34.8106 46.3067 35.3626 46.344 35.94 46.3054C36.992 46.2347 37.7306 45.9734 38.096 45.8147C38.6653 45.6134 39.328 45.2974 39.9493 44.84C41.0973 43.996 41.7893 42.7894 41.7226 41.1894C41.6853 40.308 41.4053 39.4347 41.0493 38.6107C41.1533 38.4614 41.2573 38.3094 41.3626 38.1574C43.172 35.512 44.576 32.6054 44.576 32.6054C44.576 32.6054 44.708 33.496 45.1413 34.9707C45.36 35.716 45.7933 36.5307 46.1826 37.328C44.4813 38.7107 43.4266 40.3174 43.06 41.3707C42.3826 43.32 42.9133 44.2027 43.908 44.404C44.3586 44.4947 44.996 44.288 45.4746 44.0854C46.0706 43.888 46.7866 43.5587 47.456 43.0667C48.604 42.2227 49.708 41.0414 49.6413 39.4427C49.6106 38.7147 49.4133 37.992 49.1453 37.2987C50.588 36.6974 52.4546 36.364 54.8333 36.6414C59.936 37.2374 60.936 40.4227 60.7453 41.756C60.5533 43.0894 59.484 43.8227 59.1253 44.044C58.768 44.2654 58.6586 44.3427 58.688 44.5067C58.732 44.7454 58.8973 44.7374 59.2026 44.6854C59.6226 44.6147 61.8813 43.6014 61.9786 41.14C62.1 38.012 59.1066 34.58 53.804 34.608ZM14.4746 47.8667C12.784 49.7107 10.424 50.4067 9.41063 49.82C8.31729 49.1867 8.75063 46.472 10.824 44.5147C12.088 43.3227 13.72 42.224 14.8026 41.548C15.0493 41.4 15.4106 41.1827 15.8506 40.9187C15.924 40.8774 15.9653 40.8547 15.9653 40.8547L15.964 40.852C16.0493 40.8014 16.136 40.7494 16.2253 40.6947C16.9813 43.48 16.2493 45.932 14.4746 47.8667ZM26.788 39.4974C26.2 40.932 24.968 44.604 24.2173 44.4067C23.5733 44.2374 23.1813 41.4467 24.0893 38.7C24.5453 37.3174 25.5213 35.6654 26.0946 35.024C27.0173 33.992 28.0333 33.6547 28.28 34.0734C28.5933 34.6067 27.1573 38.5974 26.788 39.4974ZM36.96 44.3507C36.7106 44.4814 36.4813 44.5627 36.376 44.5C36.2973 44.4534 36.4786 44.2814 36.4786 44.2814C36.4786 44.2814 37.7506 42.912 38.252 42.2894C38.544 41.9267 38.8813 41.496 39.2493 41.016C39.252 41.064 39.2533 41.112 39.2533 41.1587C39.2506 42.7987 37.6666 43.9054 36.96 44.3507ZM44.796 42.564C44.6093 42.432 44.6413 42.004 45.2533 40.6694C45.4933 40.1454 46.0426 39.264 46.9946 38.4214C47.1053 38.768 47.172 39.1 47.1706 39.4094C47.1586 41.4734 45.6866 42.244 44.796 42.564Z" fill="#F06292"/>
</svg>
