<svg width="65" height="64" viewBox="0 0 65 64" fill="none" xmlns="http://www.w3.org/2000/svg">
<g clip-path="url(#clip0_30_256)">
<path d="M1.49026 40.4784C0.735717 37.7305 0.351562 34.8764 0.351562 32.0017C0.351562 18.8789 8.59324 6.87997 20.8614 2.14825L22.47 6.31121C11.9098 10.3851 4.8171 20.7085 4.8171 32.0017C4.8171 34.4789 5.14634 36.9321 5.79456 39.2962L1.49026 40.4784Z" fill="#58D09E"/>
<path d="M20.6473 2.2505C23.3013 1.21286 26.0996 0.532471 28.9585 0.231986C42.0094 -1.13972 54.8041 5.80258 60.7923 17.509L56.8203 19.5438C51.6649 9.46734 40.6566 3.4926 29.4253 4.67306C26.9617 4.93199 24.5563 5.51586 22.2729 6.40766L20.6473 2.2505Z" fill="#58D09E"/>
<path d="M46.9988 55.2685C55.7132 49.7137 60.567 39.8557 59.6652 29.5475C59.3456 25.895 58.3319 22.4066 56.6572 19.1861L60.6142 17.1219C62.5617 20.866 63.7414 24.9148 64.1126 29.1584C65.1604 41.1339 59.5239 52.5821 49.3989 59.0351L46.9988 55.2685Z" fill="black"/>
<path d="M22.8534 25.3992C25.4428 25.3992 27.5521 26.78 28.636 29.1887L28.7217 29.3772L33.0705 27.9004L32.978 27.6778C31.294 23.5764 27.4149 21.0272 22.8534 21.0272C19.6465 21.0272 17.0399 22.0552 14.8861 24.1658C12.7459 26.2627 11.6621 28.901 11.6621 32.0086C11.6621 35.0888 12.7459 37.7134 14.8861 39.8103C17.0399 41.921 19.6465 42.9488 22.8534 42.9488C27.4149 42.9488 31.294 40.3996 32.978 36.3018L33.0705 36.0791L28.7148 34.5988L28.6325 34.7942C27.6618 37.1618 25.5012 38.5768 22.8534 38.5768C21.0493 38.5768 19.5265 37.9464 18.3192 36.706C17.0982 35.4486 16.4809 33.8691 16.4809 32.012C16.4809 30.1412 17.0845 28.5926 18.3192 27.2768C19.523 26.0298 21.0493 25.3992 22.8534 25.3992Z" fill="black"/>
<path d="M50.0923 21.4316L43.8949 37.1137L37.6562 21.4316H32.5527L41.3019 42.8357L35.077 57.932L39.5391 58.8194L54.9146 21.4316H50.0923Z" fill="black"/>
<path d="M35.8761 55.9859L34.7889 58.6174C34.5728 59.1382 34.0789 59.4909 33.5233 59.5149C33.1564 59.5287 32.786 59.539 32.4121 59.539C19.6157 59.5322 8.29414 50.5107 5.4886 38.08L1.13281 39.0634C2.70707 46.0359 6.65815 52.3643 12.2589 56.8871C17.9249 61.4611 25.0621 63.9863 32.3641 64C32.3744 64 32.4292 64 32.4292 64C32.858 64 33.2832 63.9897 33.7085 63.9727C35.9996 63.8767 38.0472 62.4411 38.9217 60.3134L40.3416 56.8733L35.8761 55.9859Z" fill="black"/>
</g>
<defs>
<clipPath id="clip0_30_256">
<rect width="64" height="64" fill="white" transform="translate(0.351562)"/>
</clipPath>
</defs>
</svg>
