<svg width="71" height="64" viewBox="0 0 71 64" fill="none" xmlns="http://www.w3.org/2000/svg">
<g clip-path="url(#clip0_30_193)">
<path d="M35.6572 38.7725C39.3295 38.7725 42.3065 35.7404 42.3065 32C42.3065 28.2597 39.3295 25.2275 35.6572 25.2275C31.9848 25.2275 29.0078 28.2597 29.0078 32C29.0078 35.7404 31.9848 38.7725 35.6572 38.7725Z" fill="#087EA4"/>
<path d="M35.6569 47.2381C54.0186 47.2381 68.9037 40.4158 68.9037 32C68.9037 23.5842 54.0186 16.7619 35.6569 16.7619C17.2952 16.7619 2.41016 23.5842 2.41016 32C2.41016 40.4158 17.2952 47.2381 35.6569 47.2381Z" stroke="#087EA4" stroke-width="3"/>
<path d="M22.7003 39.6191C31.8812 55.8152 45.1246 65.5336 52.2803 61.3257C59.4361 57.1179 57.7944 40.5771 48.6136 24.381C39.4328 8.18481 26.1893 -1.5336 19.0336 2.67429C11.8778 6.88217 13.5195 23.4229 22.7003 39.6191Z" stroke="#087EA4" stroke-width="3"/>
<path d="M22.6997 24.381C13.5188 40.5771 11.8772 57.1179 19.0329 61.3257C26.1887 65.5336 39.4321 55.8152 48.613 39.6191C57.7938 23.4229 59.4354 6.88217 52.2797 2.67429C45.1239 -1.5336 31.8805 8.18481 22.6997 24.381Z" stroke="#087EA4" stroke-width="3"/>
</g>
<defs>
<clipPath id="clip0_30_193">
<rect width="69.8182" height="64" fill="white" transform="translate(0.748047)"/>
</clipPath>
</defs>
</svg>
