<svg width="121" height="32" viewBox="0 0 121 32" fill="none" xmlns="http://www.w3.org/2000/svg">
<g clip-path="url(#clip0_4_175)">
<path d="M13.8662 0.191162H0.645508V31.809L13.8662 0.191162Z" fill="#FA0C00"/>
<path d="M23.168 0.191162H36.3715V31.809L23.168 0.191162Z" fill="#FA0C00"/>
<path d="M18.5175 11.8444L26.9323 31.809H21.4114L18.8965 25.4527H12.7383L18.5175 11.8444Z" fill="#FA0C00"/>
<path d="M57.9401 20.298L59.499 24.7681C59.5507 24.88 59.6282 24.9317 59.766 24.9317H62.7633C62.9269 24.9317 62.9527 24.8542 62.9269 24.6905L56.7343 7.49067C56.7084 7.35287 56.6826 7.32703 56.5448 7.32703H52.824C52.7207 7.32703 52.6604 7.40454 52.6604 7.51651C52.6087 8.42086 52.5312 8.69647 52.4192 8.96347L46.8984 24.6647C46.8725 24.8542 46.9328 24.9317 47.0879 24.9317H49.7664C49.9301 24.9317 50.0076 24.88 50.0679 24.7164L51.5407 20.298H57.9401ZM52.3934 17.3782C53.203 14.9322 54.271 11.7971 54.7016 10.0056H54.7275C55.2615 11.8832 56.5189 15.604 57.0874 17.3782H52.3934Z" fill="#FA0C00"/>
<path d="M70.8881 25.1987C72.4987 25.1987 74.2126 24.9059 75.9524 24.1566C76.0902 24.1049 76.1161 24.0446 76.1161 23.9154C76.0644 23.4331 76.0041 22.7354 76.0041 22.2014V6.00928C76.0041 5.90593 76.0041 5.85425 75.8749 5.85425H72.9552C72.8432 5.85425 72.7915 5.90593 72.7915 6.04373V11.5301C72.335 11.4784 72.0163 11.4526 71.6374 11.4526C66.9261 11.4526 64.0322 14.5618 64.0322 18.4462C64.0322 22.9508 67.0037 25.1987 70.8881 25.1987ZM72.7915 22.2014C72.3092 22.3565 71.7752 22.4168 71.2326 22.4168C69.0966 22.4168 67.3482 21.211 67.3482 18.2826C67.3482 15.6901 69.1483 14.157 71.534 14.157C72.0163 14.157 72.4384 14.2087 72.7915 14.3465V22.2014Z" fill="#FA0C00"/>
<path d="M85.4303 11.4526C81.4081 11.4526 78.9189 14.536 78.9189 18.3429C78.9189 21.745 80.8999 25.1988 85.37 25.1988C89.151 25.1988 91.8038 22.4168 91.8038 18.2568C91.8038 14.5877 89.5558 11.4526 85.4303 11.4526ZM85.2666 14.1571C87.5404 14.1571 88.5051 16.1122 88.5051 18.3429C88.5051 21.099 87.0839 22.4685 85.4303 22.4685C83.389 22.4685 82.1832 20.7545 82.1832 18.2826C82.1832 15.7418 83.4665 14.1571 85.2666 14.1571Z" fill="#FA0C00"/>
<path d="M94.8223 5.85425C94.7103 5.85425 94.6328 5.90593 94.6328 6.04373V24.3719C94.6328 24.4494 94.7103 24.5872 94.8223 24.613C96.1056 25.0092 97.4492 25.1987 98.8359 25.1987C102.806 25.1987 106.665 22.7354 106.665 17.7744C106.665 14.1829 104.202 11.4526 100.343 11.4526C99.456 11.4526 98.6292 11.5904 97.9057 11.8316L97.8712 6.06957C97.8712 5.88009 97.8196 5.85425 97.6301 5.85425H94.8223ZM103.366 18.1017C103.366 21.0732 101.334 22.4684 99.1373 22.4684C98.6809 22.4684 98.2761 22.4426 97.9057 22.3306V14.5102C98.3277 14.3465 98.8359 14.2087 99.7747 14.2087C101.893 14.2087 103.366 15.5523 103.366 18.1017Z" fill="#FA0C00"/>
<path d="M117.562 19.0664C118.871 19.0664 119.948 19.0406 120.318 18.9544C120.456 18.9286 120.508 18.8769 120.534 18.765C120.611 18.4721 120.645 17.8606 120.645 17.1113C120.645 14.5619 119.112 11.4526 115.15 11.4526C111.102 11.4526 108.854 14.7514 108.854 18.4721C108.854 21.7708 110.594 25.1988 115.469 25.1988C117.295 25.1988 118.475 24.9059 119.491 24.4236C119.595 24.3719 119.646 24.2858 119.646 24.1308V21.9C119.646 21.7708 119.569 21.745 119.491 21.7967C118.475 22.2273 117.373 22.4426 116.167 22.4426C113.437 22.4426 112.196 20.9354 112.119 19.0664H117.562ZM112.119 16.7582C112.334 15.449 113.161 14.0279 115.013 14.0279C117.054 14.0279 117.588 15.7418 117.588 16.517C117.588 16.5428 117.588 16.6548 117.588 16.7323C117.476 16.7582 117.131 16.7582 116.115 16.7582H112.119Z" fill="#FA0C00"/>
</g>
<defs>
<clipPath id="clip0_4_175">
<rect width="120" height="31.6178" fill="white" transform="translate(0.645508 0.191162)"/>
</clipPath>
</defs>
</svg>
