<svg width="141" height="44" viewBox="0 0 141 44" fill="none" xmlns="http://www.w3.org/2000/svg">
<path d="M4.53418 11.4079L12.4263 17.7276L23.9344 10.6217L15.9479 3.95569L4.53418 11.4079Z" fill="#007EE5"/>
<path d="M15.9479 31.5L23.9344 24.8336L12.4263 17.7277L4.53418 24.0478L15.9479 31.5Z" fill="#007EE5"/>
<path d="M31.9211 31.5L43.3344 24.0478L35.4427 17.7277L23.9346 24.8336L31.9211 31.5Z" fill="#007EE5"/>
<path d="M31.9211 3.95569L23.9346 10.6217L35.4427 17.7276L43.3344 11.4079L31.9211 3.95569Z" fill="#007EE5"/>
<path d="M35.3949 33.1853V30.6768L31.9677 32.9145L23.9573 26.2677L15.9477 32.9145L12.5205 30.6768V33.1853L23.9573 40.0443L35.3949 33.1853Z" fill="#007EE5"/>
<path d="M49.1455 31.4865H54.4221C55.9598 31.4865 58.1309 31.4866 59.9105 30.1021C62.0819 28.4473 63.1975 25.0767 63.1975 21.314C63.1975 11.443 56.9548 11.4126 53.8793 11.4126H49.1455V31.4865ZM53.5484 14.8741H54.3015C56.0808 14.8741 58.5238 15.0848 58.5238 21.2539C58.5238 27.8147 56.0511 28.0258 54.3015 28.0258H53.5484V14.8741Z" fill="#007EE5"/>
<path d="M64.7139 16.6496V31.4866H68.8444V25.0767C68.8444 23.9327 68.8444 20.502 71.8895 20.502C72.0409 20.502 72.2212 20.502 72.5825 20.5621V16.5294C72.3722 16.4693 72.1619 16.4388 71.8591 16.4388C69.4473 16.4388 68.7235 18.9673 68.3618 20.2312V16.6499H64.7139V16.6496Z" fill="#007EE5"/>
<path d="M79.2056 16.3182C74.7734 16.3182 73.1455 19.4184 73.1455 24.0532C73.1455 28.8383 74.8936 31.7874 79.1759 31.7874C83.518 31.7874 85.2368 28.8086 85.2368 24.0532C85.2368 19.4184 83.6089 16.3182 79.2056 16.3182ZM79.2056 19.2077C80.4729 19.2077 80.9548 20.2308 80.9548 24.0532C80.9548 28.0259 80.4121 28.8991 79.2056 28.8991C77.9695 28.8991 77.4271 27.9958 77.4271 24.0532C77.4271 20.4118 77.8493 19.2077 79.1759 19.2077H79.2056Z" fill="#007EE5"/>
<path d="M86.4619 16.6494V36.5127H90.5328V30.4037C90.985 30.8848 91.7389 31.6968 93.3671 31.6968C98.101 31.6968 98.403 25.9788 98.403 23.8725C98.403 21.3748 97.9207 19.057 96.4727 17.5824C95.7497 16.8602 94.6337 16.4384 93.6387 16.4384C91.6183 16.4384 90.804 17.9129 90.2913 18.8763V16.6494H86.4619ZM90.5328 22.6082C90.5328 21.2843 90.5328 19.178 92.4022 19.178C94.0004 19.178 94.121 21.2542 94.121 23.8725C94.121 27.0027 93.9708 28.8382 92.2816 28.8382C90.5332 28.8382 90.5332 27.5739 90.5332 25.4372V22.6082H90.5328Z" fill="#007EE5"/>
<path d="M99.6328 11.4126V31.4865H102.076C102.407 30.4334 102.558 30.1325 102.86 29.5605C103.221 30.3128 103.915 31.7874 106.298 31.7874C107.082 31.7874 107.896 31.6372 108.71 31.2161C111.424 29.8017 111.605 25.3475 111.605 23.9627C111.605 20.3818 110.459 16.4384 106.81 16.4384C105.031 16.4384 104.218 17.4018 103.704 18.0343V11.4126H99.6328ZM103.704 21.8864C103.704 21.1341 103.704 20.3818 104.188 19.8094C104.489 19.4184 104.971 19.178 105.514 19.178C106.69 19.178 107.323 20.1711 107.323 24.0832C107.323 27.9057 106.751 28.9284 105.453 28.9284C103.704 28.9284 103.704 27.0027 103.704 25.3171V21.8864H103.704Z" fill="#007EE5"/>
<path d="M118.704 16.3182C114.271 16.3182 112.643 19.4184 112.643 24.0532C112.643 28.8383 114.392 31.7874 118.674 31.7874C123.016 31.7874 124.735 28.8086 124.735 24.0532C124.735 19.4184 123.106 16.3182 118.704 16.3182ZM118.704 19.2077C119.97 19.2077 120.453 20.2308 120.453 24.0532C120.453 28.0259 119.91 28.8991 118.704 28.8991C117.467 28.8991 116.924 27.9958 116.924 24.0532C116.924 20.4118 117.347 19.2077 118.674 19.2077H118.704Z" fill="#007EE5"/>
<path d="M124.574 16.6495L128.405 23.903L124.002 31.487H127.589L130.092 27.0332L132.264 31.487H136.757L132.324 23.1807L136.153 16.6499H132.566L130.665 20.0806L129.067 16.6499H124.574V16.6495Z" fill="#007EE5"/>
</svg>
