<svg width="129" height="30" viewBox="0 0 129 30" fill="none" xmlns="http://www.w3.org/2000/svg">
<g clip-path="url(#clip0_6_124)">
<path d="M111.88 15C111.88 10.256 115.495 6.91265 120.284 6.91265C125.073 6.91265 128.688 10.256 128.688 15C128.688 19.744 125.073 23.0874 120.284 23.0874C115.495 23.0874 111.88 19.6988 111.88 15ZM123.944 15C123.944 12.7861 122.543 11.1596 120.329 11.1596C118.115 11.1596 116.715 12.7861 116.715 15C116.715 17.2139 118.115 18.8404 120.329 18.8404C122.543 18.8404 123.944 17.259 123.944 15ZM108.718 11.25C109.034 11.8825 109.17 12.5602 109.17 13.2831C109.17 15 108.266 16.5813 106.82 17.8012C108.808 18.75 109.983 21.0542 109.983 23.2229C109.983 27.2892 106.685 30 101.67 30C96.6545 30 93.3564 27.3343 93.3564 23.2229C93.3112 20.9639 94.5311 18.8855 96.519 17.8012C95.028 16.5813 94.1696 15 94.1696 13.2831C94.1696 9.71386 96.9708 7.09337 101.399 7.09337C104.019 7.09337 104.787 7.54518 106.278 7.54518C107.272 7.59036 108.311 7.31928 109.17 6.77711C109.486 6.59639 109.802 6.46084 110.164 6.46084C110.751 6.46084 111.067 7.04819 111.067 7.77108C111.203 9.35241 110.209 10.753 108.718 11.25ZM105.329 23.0874C105.329 21.2801 103.929 20.0151 101.715 20.0151C99.5009 20.0151 98.1003 21.2349 98.1003 23.0874C98.1003 24.8042 99.6365 26.1596 101.715 26.1596C103.793 26.1596 105.329 24.8042 105.329 23.0874ZM98.778 13.5542C98.8232 15.1355 100.179 16.4006 101.805 16.3554C103.341 16.3102 104.516 15.0904 104.606 13.5542C104.606 11.9277 103.432 10.7982 101.715 10.7982C99.9979 10.7982 98.778 11.8825 98.778 13.5542ZM91.1877 15.3163V20.9639C91.1877 22.0482 90.7811 22.5 89.6064 22.5H88.025C86.8503 22.5 86.4437 22.0482 86.4437 20.9639V15.4518C86.4437 14.0512 86.2178 13.0572 85.7208 12.4247C85.1335 11.7018 84.2299 11.3404 83.3262 11.3855C82.3774 11.3404 81.4738 11.747 80.8413 12.4247C80.2991 13.0572 79.9377 14.0512 79.9377 15.4066V20.9187C79.9377 22.0482 79.4407 22.4548 78.3564 22.4548H76.775C75.6907 22.4548 75.1937 22.0482 75.1937 20.9187V8.26807C75.1937 7.54518 75.5552 7.22892 76.0973 7.22892C76.9106 7.22892 78.0401 7.90663 78.8985 9.21687C80.2088 7.77108 82.0612 6.95783 84.004 6.95783C86.3082 6.95783 88.1606 7.77108 89.3805 9.12651C90.6003 10.4819 91.1877 12.3343 91.1877 15.3163ZM66.519 2.5753C66.519 1.12952 67.7389 0 69.1395 0H69.2299C70.6305 0.0903606 71.7148 1.31024 71.6244 2.71084C71.5341 4.11145 70.3142 5.19578 68.9136 5.10542C67.5582 5.06024 66.519 3.93072 66.519 2.5753ZM66.8353 20.9639V9.08133C66.8353 7.99699 67.2419 7.5 68.4166 7.5H69.9979C71.1726 7.5 71.5792 7.95181 71.5792 9.08133V20.9639C71.5792 22.0482 71.1726 22.5 69.9979 22.5H68.4166C67.2419 22.5 66.8353 22.0482 66.8353 20.9639ZM58.4768 20.9639V6.05422C58.4768 2.30422 60.5551 0.180723 62.3172 0.180723C62.8594 0.180723 63.2208 0.542169 63.2208 1.21988V20.9639C63.2208 22.0934 62.769 22.5 61.6395 22.5H60.0582C58.9738 22.5 58.4768 22.0934 58.4768 20.9639ZM38.9588 15C38.9588 10.256 42.5732 6.91265 47.3624 6.91265C52.1515 6.91265 55.766 10.256 55.766 15C55.766 19.744 52.1515 23.0874 47.3624 23.0874C42.5732 23.0874 38.9588 19.6988 38.9588 15ZM50.9768 15C50.9768 12.7861 49.5762 11.1596 47.3624 11.1596C45.1485 11.1596 43.7479 12.7861 43.7479 15C43.7479 17.2139 45.1485 18.8404 47.3624 18.8404C49.5762 18.8404 50.9768 17.259 50.9768 15ZM36.519 9.08133V21.7319C36.519 22.4548 36.1576 22.7711 35.6154 22.7711C34.8021 22.7711 33.6726 22.0934 32.8594 20.8283C31.5943 22.2741 29.7871 23.0874 27.8443 23.0422C26.0371 23.0874 24.3202 22.4548 22.9648 21.2349C21.5642 19.8795 20.7961 17.8012 20.7961 14.8193V9.08133C20.7961 7.99699 21.2027 7.5 22.3774 7.5H23.9588C25.1335 7.5 25.5401 7.95181 25.5401 9.08133V14.4127C25.5401 16.2199 25.8564 17.1687 26.4437 17.8012C26.9859 18.3434 27.7991 18.6596 28.5672 18.6145C29.4256 18.6145 30.2389 18.2982 30.8262 17.6657C31.4136 17.0331 31.7298 16.0392 31.7298 14.503V9.08133C31.7298 7.95181 32.2268 7.5 33.3112 7.5H34.8925C36.022 7.5 36.519 7.95181 36.519 9.08133ZM17.5431 1.21988V21.7319C17.5431 22.4548 17.1817 22.7711 16.6395 22.7711C15.8262 22.7711 14.6967 22.0934 13.8835 20.8735C12.8895 22.0482 10.8564 23.0874 8.50695 23.0874C3.80816 23.0874 0.645508 19.6536 0.645508 15C0.645508 10.3464 3.89852 6.91265 8.50695 6.91265C10.0431 6.91265 11.5341 7.36446 12.8443 8.22289V6.05422C12.8443 2.30422 14.9678 0.180723 16.6847 0.180723C17.2268 0.180723 17.5431 0.542169 17.5431 1.21988ZM12.8443 15C12.8443 12.6958 11.2178 11.1596 9.18467 11.1596C7.15153 11.1596 5.47985 12.6958 5.47985 15C5.47985 17.3042 7.10635 18.8404 9.18467 18.8404C11.263 18.8404 12.8443 17.3494 12.8443 15Z" fill="#59CC03"/>
</g>
<defs>
<clipPath id="clip0_6_124">
<rect width="128.042" height="30" fill="white" transform="translate(0.645508)"/>
</clipPath>
</defs>
</svg>
