<svg width="141" height="34" viewBox="0 0 141 34" fill="none" xmlns="http://www.w3.org/2000/svg">
<g clip-path="url(#clip0_4_150)">
<path d="M43.2681 24.8016C42.7671 24.5869 42.4092 24.1932 42.4092 23.6206C42.4092 22.9407 42.9818 22.4039 43.626 22.4039C43.8407 22.4039 43.9839 22.4397 44.127 22.5112C44.9859 22.9049 45.9164 23.1554 47.0616 23.1554C49.1372 23.1554 50.1035 22.1534 50.1035 20.2566V19.7556C49.2088 20.8292 48.2426 21.4734 46.6321 21.4734C44.1628 21.4734 41.9082 19.684 41.9082 16.5348V16.499C41.9082 13.3139 44.1986 11.5603 46.6321 11.5603C48.2783 11.5603 49.2446 12.2403 50.0677 13.135V13.0634C50.0677 12.2403 50.7477 11.5603 51.5708 11.5603C52.3939 11.5603 53.0738 12.2403 53.0738 13.0634V19.8988C53.0738 21.7955 52.6086 23.1912 51.7139 24.0859C50.7119 25.0879 49.2088 25.5174 47.1331 25.5174C45.7374 25.5532 44.5207 25.3027 43.2681 24.8016ZM50.1035 16.499V16.4632C50.1035 15.0317 48.9583 13.9939 47.491 13.9939C46.0237 13.9939 44.9143 14.9959 44.9143 16.4632V16.499C44.9143 17.9663 46.0237 18.9683 47.491 18.9683C48.9583 18.9683 50.1035 17.9305 50.1035 16.499ZM54.7558 13.0992C54.7558 12.2761 55.4358 11.5961 56.2589 11.5961C57.082 11.5961 57.762 12.2761 57.762 13.0992V13.5644C58.1914 12.5266 58.9072 11.5961 59.8019 11.5961C60.7323 11.5961 61.2691 12.2045 61.2691 13.0634C61.2691 13.8507 60.7681 14.3159 60.1239 14.4591C58.5851 14.817 57.762 15.9979 57.762 18.1094V20.9366C57.762 21.7597 57.082 22.4397 56.2589 22.4397C55.4358 22.4397 54.7558 21.7597 54.7558 20.9366V13.0992ZM60.9471 19.2546V19.2188C60.9471 16.8926 62.7006 15.819 65.2415 15.819C66.3152 15.819 67.1025 15.998 67.854 16.2485V16.0695C67.854 14.817 67.0667 14.137 65.5636 14.137C64.7405 14.137 64.0606 14.2444 63.488 14.4233C63.309 14.4949 63.2017 14.4949 63.0585 14.4949C62.3785 14.4949 61.806 13.9581 61.806 13.2781C61.806 12.7413 62.128 12.2761 62.6291 12.0971C63.5953 11.7393 64.5974 11.5245 66.0289 11.5245C67.6751 11.5245 68.8561 11.954 69.6076 12.7055C70.3949 13.4928 70.7528 14.6738 70.7528 16.1053V20.9366C70.7528 21.7597 70.1086 22.3681 69.2855 22.3681C68.4266 22.3681 67.854 21.7597 67.854 21.1155V21.0798C67.1383 21.9029 66.1004 22.4397 64.6332 22.4397C62.5933 22.5112 60.9471 21.366 60.9471 19.2546ZM67.854 18.5746V18.0378C67.353 17.7873 66.673 17.6442 65.9215 17.6442C64.6331 17.6442 63.8458 18.1452 63.8458 19.1114V19.1472C63.8458 19.9703 64.5258 20.4356 65.492 20.4356C66.8878 20.4356 67.854 19.684 67.854 18.5746ZM72.3274 13.0992C72.3274 12.2761 73.0074 11.5961 73.8305 11.5961C74.6536 11.5961 75.3336 12.2761 75.3336 13.0992V13.2065C76.0135 12.3119 76.944 11.4887 78.4828 11.4887C79.8785 11.4887 80.9164 12.0971 81.489 13.1708C82.4194 12.0971 83.5289 11.4887 84.9604 11.4887C87.215 11.4887 88.5391 12.8487 88.5391 15.3896V20.9366C88.5391 21.7597 87.8591 22.4397 87.036 22.4397C86.2129 22.4397 85.5329 21.7597 85.5329 20.9366V16.3916C85.5329 14.9601 84.8888 14.2444 83.7794 14.2444C82.6342 14.2444 81.9542 14.9959 81.9542 16.3916V20.9366C81.9542 21.7597 81.2743 22.4397 80.4511 22.4397C79.628 22.4397 78.9481 21.7597 78.9481 20.9366V16.3916C78.9481 14.9601 78.3039 14.2444 77.1945 14.2444C76.0493 14.2444 75.3693 14.9959 75.3693 16.3916V20.9366C75.3693 21.7597 74.6894 22.4397 73.8663 22.4397C73.0432 22.4397 72.3632 21.7597 72.3632 20.9366V13.0992H72.3274ZM90.1495 13.0992C90.1495 12.2761 90.8295 11.5961 91.6526 11.5961C92.4757 11.5961 93.1556 12.2761 93.1556 13.0992V13.2065C93.8356 12.3119 94.7661 11.4887 96.3049 11.4887C97.7006 11.4887 98.7385 12.0971 99.3111 13.1708C100.242 12.0971 101.351 11.4887 102.782 11.4887C105.037 11.4887 106.361 12.8487 106.361 15.3896V20.9366C106.361 21.7597 105.681 22.4397 104.858 22.4397C104.035 22.4397 103.355 21.7597 103.355 20.9366V16.3916C103.355 14.9601 102.711 14.2444 101.601 14.2444C100.456 14.2444 99.7763 14.9959 99.7763 16.3916V20.9366C99.7763 21.7597 99.0963 22.4397 98.2732 22.4397C97.4501 22.4397 96.7702 21.7597 96.7702 20.9366V16.3916C96.7702 14.9601 96.126 14.2444 95.0166 14.2444C93.8714 14.2444 93.1914 14.9959 93.1914 16.3916V20.9366C93.1914 21.7597 92.5115 22.4397 91.6884 22.4397C90.8653 22.4397 90.1853 21.7597 90.1853 20.9366V13.0992H90.1495ZM107.363 19.2546V19.2188C107.363 16.8926 109.117 15.819 111.658 15.819C112.731 15.819 113.519 15.998 114.27 16.2485V16.0695C114.27 14.817 113.483 14.137 111.98 14.137C111.157 14.137 110.477 14.2444 109.904 14.4233C109.725 14.4949 109.618 14.4949 109.475 14.4949C108.795 14.4949 108.222 13.9581 108.222 13.2781C108.222 12.7413 108.544 12.2761 109.045 12.0971C110.011 11.7393 111.014 11.5245 112.445 11.5245C114.091 11.5245 115.272 11.954 116.024 12.7055C116.811 13.4928 117.169 14.6738 117.169 16.1053V20.9366C117.169 21.7597 116.525 22.3681 115.702 22.3681C114.843 22.3681 114.27 21.7597 114.27 21.1155V21.0798C113.519 21.9029 112.517 22.4397 111.049 22.4397C109.009 22.5112 107.363 21.366 107.363 19.2546ZM114.27 18.5746V18.0378C113.769 17.7873 113.089 17.6442 112.338 17.6442C111.049 17.6442 110.262 18.1452 110.262 19.1114V19.1472C110.262 19.9703 110.942 20.4356 111.908 20.4356C113.34 20.4356 114.27 19.684 114.27 18.5746ZM118.744 13.0992C118.744 12.2761 119.424 11.5961 120.247 11.5961C121.07 11.5961 121.75 12.2761 121.75 13.0992V13.5644C122.179 12.5266 122.895 11.5961 123.79 11.5961C124.72 11.5961 125.257 12.2045 125.257 13.0634C125.257 13.8507 124.756 14.3159 124.112 14.4591C122.573 14.817 121.75 15.9979 121.75 18.1094V20.9366C121.75 21.7597 121.07 22.4397 120.247 22.4397C119.424 22.4397 118.744 21.7597 118.744 20.9366V13.0992ZM126.187 9.23415C126.187 8.41104 126.867 7.73108 127.69 7.73108C128.514 7.73108 129.193 8.41104 129.193 9.23415V20.9366C129.193 21.7597 128.514 22.4397 127.69 22.4397C126.867 22.4397 126.187 21.7597 126.187 20.9366V9.23415ZM131.591 25.2669C131.162 25.1237 130.625 24.7658 130.625 24.0143C130.625 23.2628 131.198 22.7975 131.806 22.7975C132.056 22.7975 132.2 22.8333 132.307 22.8691C132.557 22.9407 132.736 22.9765 132.951 22.9765C133.488 22.9765 133.738 22.8691 134.025 22.3323L134.132 22.0818L130.518 13.6718C130.446 13.4571 130.374 13.1708 130.374 12.9918C130.374 12.1329 131.019 11.5603 131.878 11.5603C132.629 11.5603 133.059 11.9898 133.309 12.7055L135.599 18.8967L137.818 12.7413C138.069 12.0971 138.498 11.5961 139.25 11.5961C140.037 11.5961 140.681 12.2045 140.681 12.9918C140.681 13.2423 140.61 13.5644 140.538 13.7076L136.816 22.6186C135.922 24.7658 135.027 25.589 133.237 25.589C132.557 25.5532 132.092 25.4458 131.591 25.2669Z" fill="#4C4C4C"/>
<path d="M17.1077 33.4622C26.1995 33.4622 33.5698 26.0918 33.5698 17C33.5698 7.90821 26.1995 0.537842 17.1077 0.537842C8.01587 0.537842 0.645508 7.90821 0.645508 17C0.645508 26.0918 8.01587 33.4622 17.1077 33.4622Z" fill="#2BB673"/>
<path d="M20.3644 19.2188C19.6845 19.2188 19.1477 19.8272 19.255 20.5429C19.3624 21.0797 19.8634 21.4376 20.4002 21.4376H22.118L23.12 21.2945C21.5096 23.6564 18.754 24.73 15.7121 24.229C13.2427 23.8354 11.1313 22.1534 10.2366 19.8272C8.19674 14.5307 12.0618 9.44886 17.1078 9.44886C19.7203 9.44886 22.0464 10.9877 23.3706 12.8487V12.8844C23.7284 13.3855 24.4084 13.5286 24.9094 13.1707C25.3747 12.8487 25.5178 12.2045 25.2315 11.7035C23.4063 8.84047 20.1139 7.01532 16.4278 7.26583C11.6323 7.65949 7.7315 11.5961 7.4452 16.4274C7.12312 22.046 11.5607 26.591 17.1078 26.591C20.0066 26.591 22.619 25.3384 24.3726 23.2628L24.1579 24.4437V25.5174C24.1579 26.0542 24.5158 26.5552 25.0526 26.6626C25.7683 26.8057 26.3767 26.2331 26.3767 25.5532V19.2188H20.3644Z" fill="white"/>
</g>
<defs>
<clipPath id="clip0_4_150">
<rect width="140" height="32.9243" fill="white" transform="translate(0.645508 0.537842)"/>
</clipPath>
</defs>
</svg>
