<svg width="121" height="38" viewBox="0 0 121 38" fill="none" xmlns="http://www.w3.org/2000/svg">
<g clip-path="url(#clip0_4_148)">
<path d="M35.2177 26.9057C35.049 26.4284 34.8516 25.9668 34.6639 25.5391C34.3746 24.885 34.0799 24.2334 33.7798 23.5843L33.7564 23.5336C31.1049 17.7561 28.3284 12.0376 25.429 6.38214L25.3051 6.14045C25.0036 5.54724 24.6969 4.95676 24.3849 4.36908C24.0106 3.62201 23.5565 2.91827 23.0307 2.27035C22.4385 1.55906 21.6986 0.987193 20.8632 0.595048C20.0273 0.202742 19.1162 -0.000488482 18.194 -0.000366156C17.2718 -0.00024383 16.3608 0.203228 15.5251 0.595756C14.6897 0.988083 13.95 1.56011 13.358 2.27153C12.8329 2.91959 12.3793 3.62313 12.005 4.36979C11.6902 4.96289 11.3806 5.5588 11.0764 6.15745L10.9615 6.38167C8.06218 12.0374 5.28566 17.7562 2.63396 23.5338L2.59599 23.6164C2.30103 24.2548 2.01125 24.8957 1.72669 25.5389C1.53919 25.9663 1.34208 26.4277 1.1731 26.9062C0.689025 28.2092 0.534697 29.6131 0.724038 30.9913C0.925124 32.3844 1.48458 33.7004 2.34685 34.8085C3.20975 35.9175 4.34525 36.7804 5.64099 37.3118C6.62021 37.7107 7.66695 37.9146 8.72326 37.9122C9.05513 37.9122 9.38677 37.8926 9.71654 37.8539C11.0524 37.6825 12.3409 37.2447 13.5069 36.5662C15.0357 35.7011 16.5458 34.4335 18.1953 32.622C19.8448 34.4335 21.3547 35.7011 22.8837 36.5659C24.0496 37.2447 25.3382 37.6826 26.674 37.8539C27.0037 37.8927 27.3354 37.9121 27.6673 37.9122C28.7236 37.9146 29.7704 37.7107 30.7493 37.3118C32.0451 36.7804 33.1807 35.9175 34.0437 34.8085C34.906 33.7004 35.4655 32.3844 35.6665 30.9913C35.8557 29.613 35.7015 28.209 35.2177 26.9057ZM18.1953 28.8805C16.1532 26.2738 14.843 23.8532 14.3832 21.8241C14.1948 21.0637 14.1502 20.2745 14.2519 19.4976C14.3324 18.9279 14.5402 18.384 14.8597 17.907C15.2531 17.3933 15.7584 16.9774 16.3367 16.6915C16.9152 16.4055 17.5511 16.2569 18.1956 16.257C18.84 16.2571 19.4759 16.4059 20.0543 16.6919C20.6325 16.9779 21.1378 17.3938 21.5311 17.9075C21.8506 18.3846 22.0584 18.9285 22.1389 19.4983C22.2405 20.2755 22.1958 21.065 22.0072 21.8255C21.5469 23.8546 20.2369 26.2746 18.1953 28.8805ZM33.2815 30.6481C33.1409 31.6221 32.7497 32.5421 32.1469 33.3168C31.5435 34.0923 30.7495 34.6956 29.8435 35.0672C28.9269 35.437 27.9325 35.568 26.9522 35.4481C25.9335 35.316 24.9516 34.9783 24.0654 34.4552C22.7044 33.6853 21.3268 32.5033 19.7764 30.7692C22.2444 27.7049 23.7856 24.8804 24.3561 22.3643C24.6128 21.3066 24.6685 20.2094 24.5201 19.1308C24.3855 18.2013 24.043 17.3147 23.5184 16.5381C22.9034 15.6997 22.1015 15.0184 21.1772 14.5491C20.2525 14.0795 19.2312 13.8349 18.1955 13.8349C17.1598 13.8349 16.1386 14.0795 15.2138 14.5491C14.2895 15.0181 13.4875 15.6993 12.8724 16.5376C12.3479 17.314 12.0054 18.2002 11.8707 19.1294C11.7222 20.2076 11.7776 21.3044 12.0338 22.362C12.604 24.8787 14.1453 27.7042 16.614 30.7694C15.0638 32.5032 13.6861 33.6853 12.3251 34.4554C11.439 34.9785 10.4571 35.3161 9.43833 35.4481C8.45803 35.568 7.46354 35.437 6.54685 35.0672C5.64092 34.6957 4.84701 34.0924 4.24365 33.3171C3.64087 32.5423 3.2498 31.6221 3.10927 30.6481C2.97423 29.6582 3.08918 28.65 3.44349 27.7167C3.57802 27.3352 3.73576 26.9614 3.93099 26.5167C4.21023 25.8857 4.49454 25.257 4.78388 24.6306L4.82185 24.5476C7.45902 18.8021 10.2203 13.1152 13.1037 7.49099L13.219 7.26558C13.5143 6.68897 13.8195 6.09254 14.1275 5.5164C14.4221 4.9224 14.7788 4.36167 15.1913 3.84369C15.5575 3.39906 16.0164 3.04119 16.5356 2.79554C17.0547 2.54989 17.6212 2.42251 18.1948 2.42246C18.7684 2.42242 19.335 2.54971 19.8541 2.79528C20.3733 3.04084 20.8324 3.39865 21.1986 3.84322C21.6114 4.36078 21.9681 4.92129 22.2626 5.51522C22.5676 6.0864 22.8701 6.67741 23.1629 7.24882L23.2871 7.49122C26.1706 13.1154 28.9318 18.8024 31.5687 24.548L31.5922 24.599C31.8804 25.2275 32.1788 25.8771 32.4596 26.5169C32.6551 26.9621 32.813 27.3364 32.9473 27.7164C33.3014 28.6498 33.4164 29.658 33.2815 30.6479V30.6481ZM49.6861 28.5753C48.7463 28.5753 47.8815 28.3858 47.0916 28.0063C46.3018 27.6267 45.6251 27.0952 45.0235 26.4124C44.4218 25.7293 43.9707 24.9325 43.632 24.0595C43.2936 23.1486 43.1431 22.1618 43.1431 21.0995C43.1431 20.0369 43.3313 19.0121 43.6697 18.1012C44.0082 17.1907 44.4971 16.3936 45.0987 15.6726C45.7004 14.9895 46.4147 14.4202 47.2421 14.0407C48.0694 13.6611 48.9343 13.4714 49.9121 13.4714C50.8519 13.4714 51.6793 13.6611 52.4316 14.0787C53.1837 14.4582 53.7854 15.0275 54.274 15.7483L54.387 13.8889H57.8464V28.196H54.387L54.274 26.1089C53.7854 26.8677 53.146 27.475 52.3186 27.9303C51.5665 28.348 50.664 28.5756 49.6864 28.5756L49.6861 28.5753ZM50.589 25.16C51.2658 25.16 51.8675 24.9703 52.4316 24.6287C52.958 24.2492 53.3715 23.7559 53.7101 23.1489C54.0108 22.5416 54.1613 21.8205 54.1613 21.0235C54.1613 20.2264 54.0108 19.5054 53.7101 18.8983C53.4092 18.291 52.9578 17.7977 52.4316 17.4184C51.905 17.0387 51.2658 16.8869 50.589 16.8869C49.9121 16.8869 49.3104 17.0767 48.7463 17.4182C48.2199 17.7977 47.8062 18.291 47.4678 18.8981C47.1668 19.5054 47.0164 20.2264 47.0164 21.0235C47.0164 21.8205 47.1668 22.5416 47.4678 23.1486C47.7685 23.7559 48.2199 24.2492 48.7463 24.6285C49.3104 24.9703 49.9121 25.16 50.589 25.16ZM63.7505 10.0179C63.7505 10.4354 63.6753 10.8149 63.4871 11.1185C63.2923 11.435 63.0205 11.6963 62.6975 11.8775C62.359 12.0673 61.9831 12.143 61.6072 12.143C61.231 12.143 60.8548 12.0673 60.5164 11.8775C60.1933 11.6963 59.9216 11.435 59.7268 11.1185C59.5388 10.7769 59.4636 10.4354 59.4636 10.0179C59.4636 9.60058 59.5386 9.22105 59.7268 8.91728C59.9147 8.57576 60.1779 8.34823 60.5166 8.15846C60.8548 7.9687 61.231 7.8927 61.6072 7.8927C61.9831 7.8927 62.359 7.9687 62.6975 8.15846C63.0206 8.33961 63.2924 8.60079 63.4873 8.91728C63.6376 9.22105 63.7505 9.56258 63.7505 10.0179ZM59.7268 28.158V13.8509H63.4871V28.158H59.7268ZM73.5277 17.6077V17.646C73.3397 17.57 73.114 17.532 72.9258 17.4942C72.7004 17.4562 72.5122 17.4562 72.2867 17.4562C71.2337 17.4562 70.444 17.7597 69.9176 18.405C69.3535 19.0501 69.0903 19.9609 69.0903 21.1372V28.158H65.33V13.8509H68.7894L68.9023 16.0141C69.2783 15.255 69.7297 14.6857 70.3688 14.2684C70.9704 13.8507 71.6848 13.6611 72.5122 13.6611C72.7756 13.6611 73.0388 13.6989 73.2645 13.7369C73.377 13.7749 73.4522 13.7749 73.5277 13.8129V17.608V17.6077ZM75.0317 28.158V7.96846H78.7922V15.6723C79.3186 14.9895 79.9203 14.458 80.6724 14.0407C81.4247 13.6611 82.2521 13.4334 83.1919 13.4334C84.1318 13.4334 84.9968 13.6231 85.7865 14.0027C86.5763 14.3822 87.2532 14.9135 87.8548 15.5966C88.4567 16.2796 88.9079 17.0767 89.2463 17.9497C89.5847 18.8603 89.735 19.8469 89.735 20.9095C89.735 21.9723 89.547 22.9969 89.2088 23.9077C88.8701 24.8185 88.3815 25.6153 87.7796 26.3364C87.1779 27.0197 86.4636 27.5887 85.6362 27.9683C84.8089 28.3478 83.944 28.5376 82.9665 28.5376C82.0261 28.5376 81.199 28.3478 80.4469 27.9303C79.6946 27.5507 79.0929 26.9814 78.6043 26.2606L78.4913 28.12L75.0319 28.158H75.0317ZM82.2893 25.16C82.9665 25.16 83.5681 24.9703 84.132 24.6287C84.6584 24.2492 85.0721 23.7559 85.4105 23.1489C85.7115 22.5416 85.8619 21.8205 85.8619 21.0235C85.8619 20.2264 85.7115 19.5054 85.4105 18.8983C85.0721 18.291 84.6584 17.7977 84.132 17.4184C83.6056 17.0387 82.9665 16.8869 82.2893 16.8869C81.6125 16.8869 81.0108 17.0767 80.4469 17.4182C79.9203 17.7977 79.5066 18.291 79.1682 18.8981C78.8675 19.5054 78.717 20.2264 78.717 21.0235C78.717 21.8205 78.8675 22.5416 79.1682 23.1486C79.4691 23.7559 79.9205 24.2492 80.4469 24.6285C81.0108 24.9703 81.6125 25.16 82.2893 25.16ZM91.1642 28.158V13.8509H94.6236L94.7365 15.7106C95.1502 15.0273 95.7141 14.496 96.4287 14.0787C97.1431 13.6611 97.9704 13.4714 98.9108 13.4714C99.9636 13.4714 100.866 13.7369 101.618 14.2304C102.408 14.7237 103.01 15.4448 103.423 16.3556C103.837 17.2664 104.062 18.3668 104.062 19.6194V28.196H100.302V20.1126C100.302 19.1261 100.076 18.329 99.6251 17.7595C99.174 17.1907 98.5721 16.8869 97.7825 16.8869C97.2183 16.8869 96.7294 17.0007 96.2783 17.2664C95.8646 17.532 95.5261 17.8735 95.2629 18.367C94.9997 18.8223 94.887 19.3914 94.887 19.9609V28.158H91.1642ZM105.942 28.158V7.96846H109.703V15.6723C110.229 14.9895 110.831 14.458 111.583 14.0407C112.336 13.6611 113.163 13.4334 114.103 13.4334C115.043 13.4334 115.908 13.6231 116.697 14.0027C117.487 14.3822 118.164 14.9135 118.766 15.5966C119.368 16.2796 119.818 17.0767 120.157 17.9497C120.496 18.8603 120.646 19.8469 120.646 20.9095C120.646 21.9723 120.458 22.9969 120.12 23.9077C119.781 24.8185 119.292 25.6153 118.69 26.3364C118.089 27.0197 117.374 27.5887 116.547 27.9683C115.72 28.3478 114.855 28.5376 113.877 28.5376C112.937 28.5376 112.11 28.3478 111.358 27.9303C110.605 27.5507 110.004 26.9814 109.515 26.2606L109.402 28.12L105.942 28.158ZM113.238 25.16C113.915 25.16 114.516 24.9703 115.081 24.6287C115.607 24.2492 116.02 23.7559 116.359 23.1489C116.66 22.5416 116.81 21.8205 116.81 21.0235C116.81 20.2264 116.66 19.5054 116.359 18.8983C116.058 18.291 115.607 17.7977 115.081 17.4184C114.554 17.0387 113.915 16.8869 113.238 16.8869C112.561 16.8869 111.959 17.0767 111.395 17.4182C110.869 17.7977 110.455 18.291 110.117 18.8981C109.778 19.5054 109.665 20.2264 109.665 21.0235C109.665 21.8205 109.816 22.5416 110.117 23.1486C110.418 23.7559 110.869 24.2492 111.395 24.6285C111.959 24.9703 112.523 25.16 113.238 25.16Z" fill="#FF385C"/>
</g>
<defs>
<clipPath id="clip0_4_148">
<rect width="120" height="38" fill="white" transform="translate(0.645508)"/>
</clipPath>
</defs>
</svg>
