<svg width="141" height="30" viewBox="0 0 141 30" fill="none" xmlns="http://www.w3.org/2000/svg">
<g clip-path="url(#clip0_4_186)">
<path d="M140.653 13.4825V11.0275H137.596V7.21091L137.493 7.24255L134.622 8.11855L134.566 8.13573V11.0277H130.034V9.417C130.034 8.667 130.202 8.09264 130.534 7.70973C130.863 7.33145 131.334 7.13918 131.934 7.13918C132.366 7.13918 132.813 7.24064 133.263 7.44082L133.375 7.49073V4.90527L133.322 4.88591C132.903 4.73536 132.332 4.65955 131.624 4.65955C130.733 4.65955 129.923 4.85318 129.216 5.23664C128.509 5.62064 127.953 6.16882 127.564 6.86618C127.176 7.56246 126.979 8.36673 126.979 9.25664V11.0277H124.85V13.4828H126.979V23.8255H130.034V13.4825H134.566V20.0553C134.566 22.7624 135.846 24.1345 138.371 24.1345C138.785 24.1345 139.222 24.0856 139.668 23.9907C140.122 23.8934 140.431 23.796 140.613 23.6918L140.653 23.6684V21.1904L140.529 21.2722C140.363 21.3829 140.156 21.4726 139.914 21.5395C139.671 21.6076 139.468 21.642 139.311 21.642C138.719 21.642 138.282 21.483 138.01 21.1694C137.735 20.853 137.596 20.2994 137.596 19.5248V13.4825H140.653ZM118.027 21.6425C116.918 21.6425 116.043 21.2755 115.427 20.553C114.807 19.8267 114.493 18.7915 114.493 17.4761C114.493 16.1193 114.807 15.057 115.427 14.3179C116.044 13.5837 116.91 13.2112 118.002 13.2112C119.061 13.2112 119.905 13.5671 120.509 14.2694C121.116 14.9757 121.424 16.0293 121.424 17.4022C121.424 18.7917 121.134 19.8595 120.563 20.5735C119.995 21.2823 119.142 21.6425 118.027 21.6425ZM118.163 10.7193C116.047 10.7193 114.366 11.3375 113.168 12.5572C111.971 13.7771 111.363 15.4647 111.363 17.5745C111.363 19.5783 111.956 21.1901 113.125 22.3642C114.294 23.5391 115.885 24.1342 117.853 24.1342C119.904 24.1342 121.551 23.5069 122.749 22.2706C123.947 21.0352 124.554 19.3634 124.554 17.3029C124.554 15.2678 123.984 13.644 122.861 12.4775C121.737 11.3108 120.156 10.7193 118.163 10.7193ZM106.437 10.7193C104.998 10.7193 103.807 11.0864 102.898 11.8102C101.983 12.5384 101.519 13.4937 101.519 14.6495C101.519 15.2504 101.619 15.7841 101.816 16.2368C102.014 16.6909 102.321 17.0907 102.729 17.4265C103.134 17.7592 103.758 18.108 104.586 18.4628C105.282 18.7484 105.801 18.99 106.131 19.1804C106.453 19.3669 106.682 19.5545 106.811 19.7373C106.937 19.9159 107.001 20.1605 107.001 20.4627C107.001 21.3226 106.355 21.7407 105.026 21.7407C104.534 21.7407 103.972 21.6385 103.356 21.4361C102.745 21.2367 102.168 20.9448 101.646 20.5707L101.519 20.4802V23.4142L101.565 23.436C101.998 23.6351 102.543 23.8025 103.185 23.9348C103.826 24.0671 104.409 24.1345 104.915 24.1345C106.477 24.1345 107.735 23.7655 108.652 23.037C109.576 22.3039 110.044 21.3262 110.044 20.13C110.044 19.2674 109.792 18.5277 109.295 17.931C108.802 17.3392 107.946 16.7959 106.752 16.3156C105.8 15.9349 105.191 15.6188 104.94 15.3761C104.697 15.1415 104.574 14.8102 104.574 14.3905C104.574 14.0182 104.726 13.7201 105.038 13.4785C105.353 13.2357 105.79 13.1122 106.338 13.1122C106.847 13.1122 107.368 13.1924 107.886 13.3495C108.404 13.5068 108.859 13.7174 109.238 13.9748L109.363 14.0599V11.2767L109.315 11.256C108.965 11.1063 108.503 10.9784 107.942 10.8742C107.384 10.7714 106.877 10.7193 106.437 10.7193ZM93.5529 21.6423C92.4443 21.6423 91.5696 21.2755 90.9536 20.553C90.3334 19.8267 90.0198 18.7917 90.0198 17.4761C90.0198 16.1193 90.3337 15.057 90.9541 14.3179C91.5702 13.5837 92.4361 13.2112 93.5285 13.2112C94.5875 13.2112 95.4308 13.5671 96.0351 14.2694C96.6422 14.9757 96.9503 16.0293 96.9503 17.4022C96.9503 18.7917 96.6605 19.8595 96.089 20.5735C95.5219 21.2823 94.669 21.6425 93.5529 21.6425V21.6423ZM93.6896 10.7193C91.5732 10.7193 89.8923 11.3375 88.6947 12.5572C87.4973 13.7771 86.89 15.4647 86.89 17.5745C86.89 19.5791 87.4828 21.1901 88.6518 22.3642C89.8207 23.5391 91.4116 24.1342 93.3798 24.1342C95.4305 24.1342 97.078 23.5069 98.2757 22.2706C99.473 21.0352 100.08 19.3634 100.08 17.3029C100.08 15.2678 99.5105 13.644 98.387 12.4775C97.2626 11.3108 95.6821 10.7193 93.6893 10.7193H93.6896ZM82.2517 13.2439V11.0275H79.2332V23.8255H82.2514V17.2789C82.2514 16.1656 82.5046 15.2512 83.0039 14.5604C83.4969 13.8777 84.1537 13.5322 84.956 13.5322C85.2278 13.5322 85.5329 13.5766 85.8635 13.6653C86.1905 13.7531 86.4276 13.8485 86.5673 13.9489L86.6939 14.0405V11.0056L86.6453 10.9846C86.3639 10.8655 85.9666 10.8055 85.4632 10.8055C84.705 10.8055 84.026 11.0485 83.4447 11.5271C82.9345 11.9476 82.5656 12.5245 82.2834 13.2439H82.2514H82.2517ZM73.8282 10.7193C72.4435 10.7193 71.2084 11.0155 70.1575 11.5991C69.1048 12.1841 68.2908 13.0197 67.7371 14.082C67.1855 15.1418 66.9058 16.3795 66.9058 17.76C66.9058 18.969 67.1771 20.0787 67.7136 21.0567C68.2503 22.0364 69.0105 22.8027 69.9721 23.334C70.9327 23.865 72.0426 24.1345 73.2717 24.1345C74.7062 24.1345 75.9309 23.8481 76.9128 23.2844L76.9525 23.2615V20.5034L76.8256 20.5958C76.3739 20.9224 75.8763 21.1809 75.349 21.3627C74.8155 21.5482 74.3291 21.6423 73.9025 21.6423C72.7186 21.6423 71.7678 21.2725 71.0774 20.544C70.3856 19.8142 70.035 18.7898 70.035 17.5004C70.035 16.203 70.4009 15.1522 71.1217 14.3765C71.84 13.6036 72.7924 13.2115 73.9526 13.2115C74.9446 13.2115 75.9112 13.5464 76.8259 14.2083L76.9525 14.2999V11.394L76.9114 11.3708C76.5675 11.1788 76.098 11.0201 75.515 10.8998C74.935 10.7798 74.3674 10.7193 73.8279 10.7193H73.8282ZM64.8266 11.0275H61.8084V23.8255H64.8269V11.0277L64.8266 11.0275ZM63.3484 5.57564C62.8518 5.57564 62.4187 5.74418 62.0624 6.07855C61.705 6.414 61.5237 6.83591 61.5237 7.33391C61.5237 7.824 61.7028 8.23827 62.057 8.56446C62.4086 8.88982 62.8431 9.05482 63.3484 9.05482C63.8537 9.05482 64.2898 8.88982 64.6459 8.565C65.0041 8.23827 65.1859 7.824 65.1859 7.33391C65.1859 6.85309 65.009 6.43527 64.6606 6.09191C64.3125 5.74936 63.8712 5.57564 63.3484 5.57564ZM55.8179 10.0833V23.8255H58.8979V5.96755H54.635L49.2161 19.2316L43.9573 5.96755H39.5205V23.8255H42.4151V10.0819H42.5146L48.0676 23.8252H50.2521L55.7181 10.0833H55.8177H55.8179Z" fill="#706D6E"/>
<path d="M14.8863 14.1619H0.6875V0H14.8863V14.1619Z" fill="#F1511B"/>
<path d="M30.5637 14.1619H16.3652V0H30.5637V14.1619Z" fill="#80CC28"/>
<path d="M14.8857 29.8036H0.6875V15.642H14.8857V29.8036Z" fill="#00ADEF"/>
<path d="M30.5637 29.8036H16.3652V15.642H30.5637V29.8036Z" fill="#FBBC09"/>
</g>
<defs>
<clipPath id="clip0_4_186">
<rect width="140" height="30" fill="white" transform="translate(0.6875)"/>
</clipPath>
</defs>
</svg>
