<svg width="43" height="42" viewBox="0 0 43 42" fill="none" xmlns="http://www.w3.org/2000/svg">
<g clip-path="url(#clip0_182_5763)">
<path d="M42.75 32.5435C41.2222 32.932 40.2772 32.5605 39.4294 31.2874L33.3997 22.9451L32.5282 21.7901L25.4867 31.315C24.6821 32.4608 23.8382 32.9595 22.3367 32.554L31.3536 20.4501L22.9588 9.51696C24.4026 9.23608 25.4001 9.37914 26.286 10.672L32.5401 19.1179L38.8401 10.7179C39.6473 9.57208 40.5148 9.13633 41.9638 9.55896L38.7088 13.8745L34.2988 19.6166C33.7738 20.2729 33.846 20.7218 34.329 21.3557L42.75 32.5435ZM0.7605 20.248L1.49813 16.6202C3.50625 9.44083 11.7356 6.45752 17.4109 10.8938C20.7276 13.503 21.5518 17.1938 21.3878 21.3281H2.6925C2.41163 28.77 7.76794 33.2614 14.5969 30.9698C16.9922 30.1652 18.4031 28.2896 19.1092 25.9429C19.4676 24.7669 20.0608 24.5831 21.1659 24.9191C20.6016 27.8539 19.3284 30.3056 16.6378 31.84C12.6176 34.1368 6.87937 33.394 3.86062 30.202C2.0625 28.35 1.31963 26.0033 0.98625 23.4938C0.93375 23.079 0.82875 22.684 0.75 22.2863C0.757 21.6073 0.7605 20.9283 0.7605 20.2493V20.248ZM2.72663 19.7492H19.6211C19.5109 14.368 16.1601 10.546 11.5807 10.5131C6.55387 10.4738 2.9445 14.2052 2.72663 19.7492Z" fill="white"/>
</g>
<defs>
<clipPath id="clip0_182_5763">
<rect width="42" height="42" fill="white" transform="translate(0.75)"/>
</clipPath>
</defs>
</svg>
