<svg width="43" height="42" viewBox="0 0 43 42" fill="none" xmlns="http://www.w3.org/2000/svg">
<g clip-path="url(#clip0_182_5749)">
<path d="M20.2496 0.0113024C20.1593 0.0195123 19.8719 0.0482471 19.6133 0.0687719C13.6479 0.606523 8.06019 3.82482 4.52119 8.77131C2.55051 11.5216 1.2901 14.6414 0.813856 17.9459C0.645528 19.0994 0.625 19.4401 0.625 21.0041C0.625 22.5681 0.645528 22.9088 0.813856 24.0623C1.95521 31.948 7.56752 38.5734 15.1793 41.0281C16.5423 41.4674 17.9793 41.767 19.6133 41.9477C20.2496 42.0174 23.0004 42.0174 23.6367 41.9477C26.4573 41.6357 28.8467 40.9378 31.2033 39.7351C31.5646 39.5504 31.6344 39.5011 31.5851 39.46C31.5523 39.4354 30.0127 37.3706 28.1652 34.8748L24.8068 30.3388L20.5986 24.1116C18.2831 20.688 16.3781 17.8884 16.3617 17.8884C16.3452 17.8843 16.3288 20.6511 16.3206 24.0295C16.3083 29.9447 16.3042 30.1828 16.2303 30.3224C16.1235 30.5235 16.0414 30.6056 15.869 30.6959C15.7376 30.7616 15.6227 30.7739 15.0027 30.7739H14.2924L14.1036 30.6549C13.9804 30.5769 13.8901 30.4743 13.8285 30.3552L13.7423 30.1705L13.7505 21.94L13.7628 13.7055L13.8901 13.5454C13.9558 13.4592 14.0954 13.3483 14.1939 13.295C14.3622 13.2129 14.4279 13.2047 15.1382 13.2047C15.9757 13.2047 16.1153 13.2375 16.3329 13.4756C16.3945 13.5413 18.6731 16.973 21.3992 21.1067C24.1253 25.2404 27.8532 30.8848 29.6842 33.6556L33.0098 38.6924L33.1781 38.5816C34.6684 37.6128 36.2449 36.2335 37.493 34.7968C40.1493 31.7468 41.8614 28.0277 42.4361 24.0623C42.6045 22.9088 42.625 22.5681 42.625 21.0041C42.625 19.4401 42.6045 19.0994 42.4361 17.9459C41.2948 10.0603 35.6825 3.43485 28.0707 0.980075C26.7282 0.544948 25.2995 0.245286 23.6983 0.0646669C23.3042 0.0236173 20.5904 -0.0215374 20.2496 0.0113024ZM28.8467 12.7121C29.0438 12.8106 29.2039 12.9994 29.2614 13.1965C29.2942 13.3032 29.3024 15.5856 29.2942 20.7291L29.2819 28.1098L27.9804 26.1148L26.6749 24.1198V18.7546C26.6749 15.2859 26.6913 13.336 26.7159 13.2416C26.7816 13.0117 26.9253 12.8311 27.1224 12.7244C27.2907 12.6382 27.3523 12.63 27.9968 12.63C28.6045 12.63 28.7112 12.6382 28.8467 12.7121Z" fill="white"/>
</g>
<defs>
<clipPath id="clip0_182_5749">
<rect width="42" height="42" fill="white" transform="translate(0.625)"/>
</clipPath>
</defs>
</svg>
