<svg width="43" height="42" viewBox="0 0 43 42" fill="none" xmlns="http://www.w3.org/2000/svg">
<path d="M16.3235 1.2111C21.6173 -0.146514 27.4681 0.644595 32.1368 3.52602C38.0168 7.04238 41.8555 13.694 41.9531 20.5409C42.1681 27.4562 38.5638 34.313 32.7717 38.0735C26.3252 42.4101 17.4076 42.5763 10.8243 38.4544C4.1141 34.4497 0.19727 26.3721 1.20347 18.6167C2.01393 10.4217 8.34347 3.1938 16.3235 1.2111Z" fill="#010101"/>
<path d="M15.5128 4.56143C25.5147 0.556665 37.7826 7.95063 38.8178 18.6754C40.4296 28.3256 32.4202 38.1321 22.6429 38.4154C13.3443 39.3433 4.35831 31.4608 4.09466 22.1233C3.40117 14.5633 8.3826 7.06191 15.5128 4.56143Z" fill="white"/>
<path d="M16.5182 19.9646C21.0016 16.3018 25.3871 12.5119 29.9681 8.95654C27.5652 12.6488 25.0941 16.2919 22.6912 19.984C20.6303 19.9938 18.5695 19.994 16.5182 19.9646ZM20.3081 22.0059C22.3787 22.0059 24.4397 22.0059 26.5006 22.0353C21.9881 25.6784 17.622 29.4975 13.0312 33.0432C15.4341 29.351 17.9052 25.6981 20.3081 22.0059Z" fill="#010101"/>
</svg>
